<svg width="128" height="128" viewBox="0 0 128 128" fill="none" xmlns="http://www.w3.org/2000/svg">
<g clip-path="url(#clip0_63_274)">
<path d="M117.221 109.81V45.1367C117.221 44.0202 116.316 43.1157 115.2 43.1157C114.083 43.1157 113.179 44.0205 113.179 45.1367V109.81C113.179 110.927 114.084 111.831 115.2 111.831C116.316 111.831 117.221 110.927 117.221 109.81Z" fill="#973543"/>
<path d="M46.4843 97.0105H27.621C23.5348 97.0105 20.2105 100.335 20.2105 104.421V120.59C20.2105 121.802 20.5033 122.947 21.021 123.958H11.4528C10.3365 123.958 9.43176 124.863 9.43176 125.979C9.43176 127.095 10.3368 128 11.4528 128H46.4843C50.5705 128 53.8948 124.676 53.8948 120.59V104.421C53.8948 100.335 50.5705 97.0105 46.4843 97.0105ZM49.8528 120.59C49.8528 122.447 48.3418 123.958 46.4843 123.958H27.621C25.7635 123.958 24.2525 122.447 24.2525 120.59V111.831H45.1368C46.253 111.831 47.1578 110.927 47.1578 109.811C47.1578 108.694 46.2528 107.789 45.1368 107.789H24.2528V104.421C24.2528 102.563 25.7638 101.052 27.6213 101.052H46.4845C48.342 101.052 49.853 102.563 49.853 104.421V120.59H49.8528Z" fill="#973543"/>
<path d="M4.71575 123.958H2.021C0.905 123.958 0 124.863 0 125.979C0 127.096 0.905 128 2.021 128H4.71575C5.832 128 6.73675 127.096 6.73675 125.979C6.73675 124.863 5.832 123.958 4.71575 123.958Z" fill="#973543"/>
<path d="M109.81 24.2527H107.116V7.4105C107.116 3.3245 103.791 0 99.7052 0H90.2737C86.1877 0 82.8632 3.3245 82.8632 7.4105V24.2525H80.1685C71.2477 24.2525 63.704 30.6285 62.2305 39.413C62.0457 40.514 62.7885 41.5557 63.8895 41.7407C64.99 41.9245 66.032 41.1825 66.2172 40.0817C67.3627 33.2517 73.2302 28.2945 80.1687 28.2945H109.811C117.611 28.2945 123.958 34.6412 123.958 42.4417V120.589C123.958 122.446 122.447 123.957 120.589 123.957H88.2525C87.136 123.957 86.2315 124.862 86.2315 125.978C86.2315 127.095 87.136 127.999 88.2525 127.999H120.589C124.675 128 128 124.675 128 120.589V42.442C128 32.4123 119.84 24.2527 109.81 24.2527ZM103.074 24.2527H86.9052V7.4105C86.9052 5.553 88.4162 4.042 90.2737 4.042H99.7052C101.563 4.042 103.074 5.553 103.074 7.4105V24.2527Z" fill="#973543"/>
<path d="M71.4105 78.1473H70.7367V53.221C70.7367 49.135 67.4122 45.8105 63.3262 45.8105H57.9367C53.8505 45.8105 50.5262 49.135 50.5262 53.221V78.1473H49.8525C42.7947 78.1473 37.0525 83.8895 37.0525 90.9473C37.0525 92.0638 37.9575 92.9683 39.0735 92.9683C40.1895 92.9683 41.0945 92.0638 41.0945 90.9473C41.0945 86.118 45.0235 82.1893 49.8525 82.1893H71.4105C76.2397 82.1893 80.1685 86.118 80.1685 90.9473V120.589C80.1685 122.447 78.6575 123.958 76.8 123.958H58.6105C57.4942 123.958 56.5895 124.863 56.5895 125.979C56.5895 127.095 57.4945 128 58.6105 128H76.8C80.886 128 84.2105 124.675 84.2105 120.589V90.9473C84.2105 83.8895 78.4682 78.1473 71.4105 78.1473ZM66.6947 78.1473H54.5685V53.221C54.5685 51.3635 56.0795 49.8525 57.937 49.8525H63.3265C65.184 49.8525 66.695 51.3635 66.695 53.221V78.1473H66.6947Z" fill="#973543"/>
<path d="M74.1052 115.2V90.9475C74.1052 89.831 73.2005 88.9265 72.0842 88.9265C70.9677 88.9265 70.0632 89.831 70.0632 90.9475V115.2C70.0632 116.317 70.9677 117.221 72.0842 117.221C73.2007 117.221 74.1052 116.317 74.1052 115.2Z" fill="#973543"/>
</g>
<defs>
<clipPath id="clip0_63_274">
<rect width="128" height="128" fill="white"/>
</clipPath>
</defs>
</svg>
