<svg width="128" height="128" viewBox="0 0 128 128" fill="none" xmlns="http://www.w3.org/2000/svg">
<g clip-path="url(#clip0_63_178)">
<path d="M52.5204 35.0978C52.7818 35.198 53.0498 35.2482 53.3135 35.2482C54.1829 35.2482 55.0065 34.7209 55.3442 33.8602C55.7822 32.7402 55.2266 31.4765 54.1088 31.0385C50.8622 29.7704 49.252 26.0946 50.5223 22.848C51.7904 19.6014 55.4641 17.9912 58.7128 19.2615C59.8393 19.6929 61.0987 19.146 61.5367 18.0239C61.9746 16.9017 61.419 15.6402 60.3012 15.2022C54.806 13.0603 48.6092 15.7796 46.463 21.2639C44.3168 26.7482 47.0361 32.9559 52.5204 35.0978Z" fill="#973543"/>
<path d="M116.038 41.9678C114.935 42.4515 114.434 43.7371 114.916 44.8374C115.596 46.3845 115.628 48.1036 115.014 49.6746C114.399 51.2478 113.21 52.4876 111.663 53.1652C110.116 53.8429 108.399 53.8777 106.823 53.2633C105.25 52.6488 104.01 51.457 103.333 49.9099C102.851 48.8096 101.572 48.3084 100.463 48.7878C99.3605 49.2715 98.8593 50.5549 99.3409 51.6574C100.485 54.2699 102.579 56.2811 105.235 57.3204C106.496 57.8128 107.812 58.0591 109.126 58.0591C110.582 58.0591 112.035 57.7562 113.41 57.1548C116.023 56.0109 118.034 53.917 119.073 51.2587C120.112 48.6004 120.051 45.6981 118.907 43.0856C118.426 41.9874 117.147 41.4885 116.038 41.9678Z" fill="#973543"/>
<path d="M85.6028 35.9169C84.5569 36.5096 84.1865 37.8387 84.7792 38.8868C85.6094 40.3554 85.8185 42.0636 85.3675 43.6891C84.9143 45.3167 83.8553 46.6698 82.3846 47.5022C80.9138 48.3345 79.2055 48.5393 77.5823 48.0905C75.9546 47.6373 74.6015 46.5783 73.7692 45.1076C73.1787 44.0595 71.8452 43.6913 70.8015 44.2839C69.7556 44.8766 69.3852 46.2057 69.9779 47.2538C71.9389 50.7248 75.5646 52.6771 79.2927 52.6771C81.0707 52.6771 82.8748 52.2326 84.5286 51.2978C87.0126 49.8946 88.8015 47.609 89.5663 44.8592C90.331 42.1094 89.9759 39.2289 88.5727 36.7449C87.98 35.6947 86.6487 35.3243 85.6028 35.9169Z" fill="#973543"/>
<path d="M67.008 39.8499C68.5049 40.5733 70.0846 40.9154 71.6447 40.9154C75.6125 40.9154 79.4321 38.6951 81.2755 34.8885C81.7984 33.8056 81.3452 32.5026 80.2623 31.9775C79.1728 31.4524 77.8742 31.91 77.3513 32.9907C75.8326 36.1305 72.0434 37.4422 68.9058 35.9279C65.7682 34.4092 64.4499 30.6179 65.9686 27.4824C66.4916 26.3995 66.0384 25.0965 64.9555 24.5714C63.8682 24.0463 62.5696 24.5038 62.0444 25.5846C59.482 30.8837 61.7067 37.2831 67.008 39.8499Z" fill="#973543"/>
<path d="M50.8056 52.248C52.1761 52.8472 53.6273 53.1479 55.0806 53.1479C56.3966 53.1479 57.7171 52.9016 58.9787 52.407C61.6369 51.3655 63.7287 49.3544 64.8682 46.7397C65.352 45.6372 64.8465 44.3516 63.7439 43.8701C62.6327 43.3885 61.3558 43.8962 60.8765 44.9944C60.1988 46.5414 58.9612 47.7333 57.3881 48.3499C55.8171 48.9665 54.1001 48.936 52.5487 48.2562C49.3544 46.8595 47.8924 43.1249 49.2869 39.9306C49.7706 38.8281 49.2651 37.5425 48.1626 37.061C47.0491 36.5816 45.7745 37.0871 45.2951 38.1853C42.9397 43.5781 45.4128 49.8882 50.8056 52.248Z" fill="#973543"/>
<path d="M78.2817 29.3215C78.6281 29.3542 78.9746 29.3694 79.321 29.3694C81.7941 29.3694 84.1691 28.5197 86.0996 26.9269C90.6404 23.1791 91.2876 16.4332 87.5398 11.8924C86.7729 10.9664 85.4045 10.8291 84.472 11.5982C83.5437 12.3652 83.413 13.7379 84.1778 14.6662C86.3981 17.3549 86.0146 21.3489 83.3237 23.567C82.0229 24.6412 80.3996 25.1532 78.6957 24.9833C77.0157 24.822 75.497 24.0158 74.4228 22.7129C73.6558 21.7868 72.2875 21.6496 71.3549 22.4187C70.4267 23.1857 70.296 24.5584 71.0608 25.4866C72.8758 27.6873 75.4404 29.0491 78.2817 29.3215Z" fill="#973543"/>
<path d="M33.6227 48.9971C34.076 47.8815 33.5378 46.6112 32.4222 46.158C31.3109 45.7091 30.0363 46.2408 29.583 47.3585C28.2735 50.5877 24.5846 52.1521 21.3468 50.8404C18.1176 49.5287 16.5553 45.8355 17.8649 42.6042C18.3159 41.4886 17.7799 40.2183 16.6643 39.765C15.5465 39.314 14.2762 39.85 13.8252 40.9656C11.6114 46.4238 14.2501 52.6642 19.706 54.878C21.0178 55.4096 22.373 55.6602 23.7087 55.6602C27.9314 55.6602 31.9384 53.1435 33.6227 48.9971Z" fill="#973543"/>
<path d="M124.801 42.7697C126.091 38.7518 125.032 34.2981 121.943 31.2607C119.735 29.0949 116.768 27.9008 113.698 27.94C113.186 26.5804 112.382 25.3471 111.323 24.3078C108.527 21.5624 104.527 20.7736 100.992 21.8478C100.999 21.6561 101.04 21.4709 101.04 21.2791C101.04 12.7836 94.0199 5.87205 85.3936 5.87205C83.7573 5.87205 82.1558 6.12045 80.6087 6.61506C78.1466 4.05485 74.6952 2.56665 71.0869 2.56665C67.0712 2.56665 63.3213 4.3795 60.8548 7.40819C58.8109 6.39935 56.5667 5.87423 54.257 5.87423C46.0948 5.87423 39.4535 12.4153 39.4535 20.4555C39.4535 20.4838 39.4535 20.5121 39.4535 20.5405C37.1678 21.6169 35.2656 23.2554 33.8341 25.2229C29.729 23.6955 25.0422 24.5627 21.7978 27.6176C17.7276 26.3407 13.1998 27.3648 10.1145 30.3957C7.90944 32.5615 6.70886 35.49 6.71758 38.5056C5.34051 39.0067 4.08981 39.7933 3.03522 40.8283C1.07856 42.7479 0 45.3059 0 48.0318C0 50.7576 1.07856 53.3156 3.03522 55.2396C4.1639 56.3465 5.50392 57.1657 6.9834 57.656C7.00083 60.8023 8.26896 63.855 10.5612 66.1058C12.8381 68.3436 15.8581 69.5681 18.9936 69.6051C19.1613 71.7034 20.0765 73.7167 21.6235 75.2354C23.3862 76.9655 25.7002 77.8327 28.0186 77.8327C28.8945 77.8327 29.7595 77.6693 30.605 77.4209C39.5646 77.6715 51.76 97.3775 53.3637 120.376C53.5619 123.213 55.9522 125.435 58.8022 125.435H69.6968C72.4771 125.435 74.815 123.348 75.1288 120.579L75.2944 119.049C78.2795 91.3942 84.4981 77.1965 93.7759 76.7716C95.5975 77.7543 97.5999 78.299 99.6219 78.299C102.738 78.299 105.854 77.1333 108.226 74.804C109.046 74 109.734 73.0979 110.288 72.1087C112.976 72.0935 115.595 71.0432 117.522 69.1519C119.65 67.0624 120.72 64.1927 120.533 61.3013C122.052 60.7392 123.433 59.8632 124.601 58.7171C126.795 56.5622 128.002 53.6947 128.002 50.6399C128 47.6831 126.869 44.9007 124.801 42.7697ZM42.4343 24.0267C43.4148 23.6955 44.0249 22.7194 43.8985 21.6931C43.8484 21.2857 43.8135 20.8738 43.8135 20.4511C43.8135 14.8143 48.4982 10.2277 54.2592 10.2277C56.4185 10.2277 58.495 10.8748 60.2708 12.0994C60.7741 12.448 61.406 12.5657 62.0009 12.4284C62.5979 12.2911 63.1099 11.9076 63.4084 11.3716C64.9489 8.6262 67.8948 6.92011 71.0891 6.92011C73.8868 6.92011 76.5407 8.25142 78.188 10.4826C78.7915 11.3019 79.881 11.5917 80.8114 11.1864C82.2713 10.5502 83.8139 10.2277 85.3958 10.2277C91.6188 10.2277 96.6847 15.1847 96.6847 21.2769C96.6847 22.7695 96.3601 24.2228 95.7522 25.6064C95.75 25.613 95.7456 25.6151 95.7434 25.6217L95.5778 26.0182C95.5735 26.0248 95.5713 26.0335 95.5691 26.04L95.5648 26.0509C95.5256 26.1337 95.5256 26.2209 95.4972 26.3059C95.4362 26.4889 95.3643 26.6697 95.3512 26.8571C95.3491 26.9029 95.3665 26.9443 95.3665 26.99C95.3665 27.2166 95.3796 27.4454 95.4493 27.659C95.4711 27.7287 95.5234 27.7832 95.5517 27.8507C95.6301 28.0316 95.7064 28.2146 95.8306 28.3715C96.0027 28.585 96.2163 28.768 96.4712 28.9075C97.6587 29.5633 98.3669 30.729 98.3669 32.0277C98.3669 33.3328 97.6151 34.5378 96.4102 35.1784C95.8698 35.4638 95.4754 35.9628 95.3207 36.5533C95.1682 37.1438 95.2684 37.7713 95.5975 38.2833C96.3078 39.3859 96.6847 40.654 96.6847 41.9483C96.6847 44.7264 94.9939 47.2256 92.3749 48.315C91.2876 48.7682 90.7581 50.0037 91.1786 51.1062C91.4815 51.8971 91.634 52.7121 91.634 53.5248C91.634 57.3379 88.4593 60.4406 84.5547 60.4406C84.1538 60.4406 83.7573 60.3971 83.3607 60.3273C83.2779 60.3143 83.1973 60.2947 83.1167 60.2794C82.7288 60.1988 82.341 60.0942 81.9618 59.946C80.5085 59.3795 79.2535 58.3554 78.4429 56.9936C78.0551 56.3465 77.3622 55.9456 76.6083 55.9303C75.7977 55.9303 75.1462 56.2942 74.7409 56.9282C73.5621 58.7542 71.904 60.1465 69.9909 61.029C69.7098 61.1597 69.4266 61.2839 69.139 61.3907C68.9973 61.4429 68.8492 61.4843 68.7054 61.5301C68.433 61.6173 68.1606 61.7066 67.8817 61.7741C67.6922 61.8199 67.4982 61.846 67.3043 61.8831C67.0603 61.9288 66.8184 61.9833 66.5722 62.0116C66.1473 62.0618 65.7159 62.0879 65.2801 62.0923C64.9555 62.0944 64.6286 62.0705 64.304 62.0443C64.1994 62.0356 64.0926 62.0356 63.988 62.0247C63.6329 61.9855 63.2777 61.9223 62.9247 61.8504C62.8572 61.8373 62.7853 61.8286 62.7177 61.8134C62.3342 61.7262 61.9551 61.6173 61.5803 61.4909C61.5476 61.48 61.515 61.4713 61.4823 61.4604C61.077 61.3188 60.6761 61.1575 60.2839 60.9679C58.5974 60.1639 57.1092 58.9612 55.9936 57.4207C55.6493 56.9457 55.1286 56.6276 54.5468 56.5426C54.44 56.5273 54.3355 56.5186 54.2287 56.5186C53.7537 56.5186 53.2874 56.6733 52.9061 56.9675C52.3439 57.3967 51.7317 57.7257 51.0998 58.0068C51.0845 58.0133 51.0693 58.0112 51.054 58.0177C50.4831 58.2683 49.9079 58.4535 49.3305 58.582C49.3109 58.5864 49.2913 58.5929 49.2717 58.5973C48.6899 58.7237 48.106 58.789 47.5242 58.789C42.6914 58.789 38.7628 54.9454 38.7628 50.2194C38.7628 48.4109 39.3424 46.6743 40.4384 45.1948C40.7935 44.7176 40.9373 44.1163 40.8371 43.5301C40.7391 42.944 40.4035 42.4254 39.9111 42.0921C37.0829 40.1768 35.3964 37.0326 35.3964 33.6815C35.3964 33.1847 35.4421 32.6966 35.514 32.2151C35.5315 32.0909 35.5598 31.9688 35.5816 31.8468C35.6513 31.4808 35.7385 31.1191 35.8474 30.7639C35.8866 30.6397 35.9215 30.5155 35.9651 30.3913C36.1002 30.0078 36.257 29.6352 36.4357 29.2714C36.4706 29.1995 36.4967 29.1254 36.5359 29.0535C37.7365 26.746 39.8152 24.9114 42.4343 24.0267ZM73.5295 64.062C74.6407 63.3691 75.6757 62.5542 76.5887 61.5933C77.506 62.4736 78.5845 63.1578 79.7372 63.6916C79.8004 63.77 79.8614 63.8463 79.9464 63.9313C80.3059 64.2842 80.6937 64.6045 81.1055 64.89C78.4102 68.0298 76.0003 71.7165 74.0088 75.2899C74.1417 71.0999 73.8933 67.2846 73.5295 64.062ZM59.3883 86.9906C55.7626 78.6541 51.163 72.6099 47.5612 68.69C48.2541 68.3784 48.9013 67.9579 49.4591 67.411C50.664 66.2257 51.3329 64.635 51.3743 62.99C51.8711 62.7198 52.3701 62.3624 52.869 61.9964C53.1785 61.8591 53.4922 61.7306 53.7907 61.5693C54.8693 62.7024 56.1134 63.6589 57.4644 64.4193C59.2031 71.2045 59.5104 80.0421 59.3883 86.9906ZM24.674 72.1283C23.4974 70.9713 23.0463 69.3328 23.469 67.7444C23.663 67.0101 23.4625 66.2257 22.9374 65.6766C22.5212 65.243 21.9503 65.0055 21.362 65.0055C21.2073 65.0055 21.0483 65.0229 20.8936 65.0556C18.2309 65.6395 15.516 64.8704 13.6095 62.9987C11.8358 61.2556 11.0253 58.7607 11.4458 56.3247C11.5482 55.7364 11.4022 55.135 11.0471 54.6556C10.6919 54.1785 10.1559 53.8669 9.56323 53.7928C8.22756 53.6294 7.0248 53.0541 6.08569 52.1303C4.97227 51.0321 4.35782 49.5766 4.35782 48.0318C4.35782 46.4869 4.97227 45.0314 6.09005 43.9354C6.98122 43.0595 8.12079 42.493 9.38456 42.2991C9.96851 42.2097 10.4893 41.8872 10.8314 41.4057C11.1713 40.9242 11.3042 40.325 11.1931 39.7454C10.7682 37.4706 11.5068 35.137 13.1693 33.5028C15.3461 31.3631 18.6754 30.8206 21.4535 32.1519C22.3578 32.5855 23.4603 32.3393 24.0966 31.5483C24.2752 31.3239 24.4626 31.1038 24.6761 30.8946C26.5674 29.0339 29.2933 28.3976 31.7881 29.1145C31.7663 29.1777 31.7598 29.2452 31.7402 29.3084C31.5746 29.8226 31.4547 30.3521 31.348 30.8859C31.3087 31.0777 31.2521 31.2651 31.2216 31.459C31.1083 32.1867 31.0407 32.9276 31.0407 33.6793C31.0407 37.78 32.7969 41.6563 35.8169 44.3995C34.8909 46.1971 34.4093 48.1734 34.4093 50.215C34.4093 50.6552 34.4333 51.0888 34.4769 51.518C34.4921 51.6684 34.5226 51.8144 34.5444 51.9647C34.5815 52.2392 34.6163 52.516 34.673 52.7861C34.7078 52.9583 34.7601 53.1239 34.8015 53.2916C34.8604 53.5313 34.9148 53.7754 34.9889 54.0085C35.0456 54.1872 35.1153 54.3571 35.1785 54.5314C35.2569 54.7493 35.331 54.9694 35.4203 55.1808C35.4966 55.3594 35.5859 55.5272 35.6687 55.7015C35.7646 55.902 35.8561 56.1046 35.9629 56.2985C36.0566 56.4707 36.1634 56.6319 36.2636 56.7997C36.3769 56.9871 36.4858 57.1745 36.6057 57.3553C36.7168 57.5187 36.8366 57.6734 36.9543 57.8303C37.0829 58.0025 37.2071 58.1768 37.3443 58.3445C37.4707 58.4992 37.608 58.643 37.7431 58.7912C37.8847 58.9481 38.0241 59.1072 38.1745 59.2575C38.3161 59.3991 38.4686 59.532 38.6168 59.6693C38.7715 59.8109 38.9262 59.9569 39.0874 60.0898C39.2422 60.2184 39.4056 60.3382 39.5668 60.4603C39.7346 60.5866 39.9002 60.7152 40.0745 60.835C40.2423 60.9505 40.4166 61.0551 40.5909 61.1619C40.7696 61.273 40.9482 61.3841 41.1334 61.4865C41.3121 61.5846 41.4951 61.6739 41.6782 61.7654C41.8699 61.8591 42.0617 61.955 42.2578 62.04C42.4451 62.1206 42.6369 62.1925 42.8286 62.2644C43.0313 62.3407 43.2339 62.4191 43.4409 62.4845C43.637 62.5477 43.8375 62.6021 44.0379 62.6566C44.2493 62.7133 44.4585 62.7699 44.672 62.8178C44.8768 62.8636 45.0838 62.8985 45.293 62.9333C45.5109 62.9704 45.7288 63.0052 45.951 63.0336C46.1624 63.0597 46.3759 63.0749 46.5894 63.0902C46.7289 63.0989 46.864 63.1207 47.0034 63.1272C46.9424 63.5652 46.7376 63.9727 46.4108 64.2973C45.8399 64.8573 44.9923 65.0556 44.197 64.8203C43.6174 64.6503 42.9964 64.7266 42.48 65.0294C41.9614 65.3323 41.591 65.8378 41.4559 66.4239C41.36 66.8445 41.2053 67.2432 40.9984 67.6136C40.787 67.9927 40.5255 68.3392 40.2118 68.6442C38.8696 69.9647 36.8628 70.3634 35.0892 69.6596C34.0149 69.2304 32.7904 69.7228 32.3067 70.773C32.0735 71.2807 31.7532 71.7361 31.361 72.1218C30.8991 72.575 30.3326 72.928 29.6811 73.1677C29.6724 73.1698 29.668 73.1785 29.6593 73.1807C27.975 73.793 26.0184 73.4466 24.674 72.1283ZM70.9584 118.583L70.7949 120.088C70.7296 120.653 70.2567 121.078 69.6924 121.078H58.7979C58.2248 121.078 57.7476 120.635 57.7084 120.073C56.2529 99.1947 46.1667 79.3035 35.4966 74.2615C35.6644 74.2876 35.8322 74.292 35.9999 74.3072C36.1525 74.3225 36.305 74.3421 36.4553 74.3486C36.6645 74.3573 36.8715 74.3508 37.0785 74.3464C37.2267 74.3421 37.3748 74.3464 37.5208 74.3355C37.7278 74.3203 37.9326 74.2876 38.1374 74.2593C38.2834 74.2397 38.4294 74.2266 38.5754 74.1983C38.778 74.1591 38.9763 74.1046 39.1768 74.0523C39.3206 74.0152 39.4644 73.9869 39.606 73.9412C39.8065 73.878 40.0004 73.7974 40.1965 73.7211C40.3294 73.6688 40.4667 73.6252 40.5974 73.5664C40.811 73.4705 41.0136 73.3572 41.2206 73.2461C41.3274 73.1873 41.4385 73.1393 41.5431 73.0783C41.798 72.928 42.0399 72.7558 42.2817 72.5793C42.3297 72.5423 42.3841 72.514 42.4321 72.4769C42.7197 72.2547 42.9964 72.0172 43.2601 71.7579C43.4736 71.5487 43.6741 71.3308 43.8636 71.102C48.1256 75.6538 55.3792 85.0296 58.8654 98.9637C59.1203 99.9922 60.0856 100.679 61.138 100.609C62.1948 100.53 63.0424 99.7046 63.147 98.65C63.2298 97.8155 64.9664 79.7719 62.3429 66.1886C62.4976 66.2169 62.6567 66.2235 62.8114 66.2474C63.16 66.3019 63.5087 66.352 63.8638 66.3825C64.1013 66.4021 64.3388 66.4087 64.5763 66.4196C64.7855 66.4283 64.9903 66.4523 65.1995 66.4523C65.3215 66.4523 65.4392 66.437 65.559 66.4348C65.8052 66.4283 66.0514 66.4152 66.2977 66.3978C66.6245 66.376 66.9513 66.3455 67.2738 66.3019C67.5048 66.2714 67.7314 66.2365 67.9602 66.1973C68.3132 66.1341 68.664 66.0601 69.0104 65.9729C69.1237 65.9446 69.2414 65.9315 69.3547 65.8988C69.9517 72.2307 69.967 80.7001 67.5963 89.1325C67.2782 90.259 67.9101 91.4356 69.0235 91.7951C70.1369 92.159 71.3353 91.5707 71.7384 90.4747C71.7907 90.3331 76.5429 77.5233 83.4326 68.86C83.4544 68.8948 83.4893 68.9231 83.5132 68.9602C83.7551 69.3284 84.0296 69.677 84.3499 69.9952C84.3586 70.0039 84.363 70.0148 84.3717 70.0235C84.6615 70.3068 84.9775 70.5573 85.3086 70.7796C85.3195 70.7861 85.3283 70.797 85.3392 70.8057C85.5069 70.9168 85.69 70.9909 85.8665 71.0868C86.0538 71.187 86.2325 71.3047 86.4286 71.3853C86.5288 71.4267 86.6356 71.4441 86.7358 71.4812C87.0213 71.5836 87.3045 71.686 87.603 71.7492C88.0061 71.8342 88.4158 71.8821 88.8298 71.8908C89.0651 72.3375 89.3287 72.7667 89.6185 73.1764C75.29 78.4275 72.0805 108.178 70.9584 118.583ZM121.546 55.6078C120.496 56.6406 119.158 57.3183 117.685 57.571C117.073 57.6756 116.535 58.0373 116.203 58.5668C115.872 59.0963 115.787 59.739 115.964 60.3361C116.559 62.3646 115.986 64.5501 114.467 66.0426C113.12 67.3609 111.177 67.9644 109.292 67.6768C108.294 67.5177 107.3 68.0821 106.926 69.0343C106.531 70.0431 105.943 70.9365 105.169 71.6925C102.513 74.3029 98.4104 74.6428 95.3709 72.7188C95.3687 72.7166 95.3665 72.7144 95.3643 72.7123C94.8653 72.3941 94.4405 72.0608 94.0635 71.6904C93.2377 70.8798 92.6232 69.9124 92.231 68.8142C92.1395 68.5614 92.0001 68.3457 91.8367 68.1496C91.7909 68.0952 91.7342 68.0538 91.6841 68.0036C91.5556 67.8794 91.4227 67.7705 91.2701 67.6812C91.1961 67.6376 91.122 67.6027 91.0435 67.57C90.8932 67.5047 90.7407 67.4589 90.5772 67.4284C90.4901 67.411 90.4073 67.3935 90.3158 67.387C90.27 67.3848 90.2243 67.3652 90.1785 67.3652C89.9889 67.3652 89.7972 67.3892 89.6076 67.4415C89.6055 67.4415 89.6011 67.4415 89.5967 67.4415C89.5052 67.4676 89.4115 67.4676 89.32 67.4807C88.7339 67.5679 88.1565 67.4328 87.6902 67.1016C87.6009 67.0362 87.505 66.9817 87.4244 66.9033C87.2718 66.7551 87.152 66.583 87.054 66.4C87.03 66.3542 87.0169 66.3019 86.9951 66.254C86.9341 66.1123 86.8818 65.9642 86.8535 65.8095C86.7947 65.4892 86.8012 65.1536 86.9036 64.8181C86.9319 64.7266 86.9537 64.6329 86.969 64.5392C87.6444 64.3954 88.2959 64.1862 88.9213 63.9291C89.1 63.855 89.2612 63.7526 89.4355 63.672C89.8909 63.4584 90.3376 63.2318 90.7581 62.9638C90.9738 62.8266 91.1677 62.6675 91.3726 62.5171C91.7234 62.2579 92.0633 61.992 92.3814 61.6979C92.5797 61.5127 92.7627 61.3188 92.9457 61.1205C93.2333 60.8132 93.5013 60.4951 93.7519 60.1574C93.9153 59.9395 94.07 59.7194 94.216 59.4906C94.4448 59.1311 94.6453 58.7564 94.8327 58.3707C94.9481 58.1332 95.0702 57.9022 95.1682 57.656C95.3425 57.2224 95.4711 56.7735 95.5909 56.316C95.6497 56.0937 95.7282 55.8824 95.7718 55.6536C95.9069 54.9607 95.9918 54.2504 95.9918 53.5183C95.9918 52.8166 95.9243 52.1194 95.7892 51.4309C99.0292 49.3805 101.04 45.8332 101.04 41.9439C101.04 40.5036 100.759 39.0873 100.219 37.7604C101.402 36.6491 102.219 35.2111 102.555 33.6357C102.666 33.1106 102.725 32.5702 102.725 32.0211C102.725 31.496 102.664 30.9796 102.561 30.4763C102.529 30.3129 102.468 30.1625 102.424 30.0013C102.332 29.6657 102.237 29.3324 102.104 29.0121C102.027 28.8312 101.929 28.6634 101.84 28.4891C101.696 28.208 101.55 27.9313 101.374 27.6699C101.256 27.4955 101.123 27.3343 100.992 27.1687C100.877 27.0227 100.783 26.8637 100.657 26.7264C102.984 25.1489 106.209 25.382 108.27 27.4106C109.157 28.28 109.728 29.3868 109.924 30.6092C110.015 31.1888 110.336 31.7052 110.815 32.0451C111.292 32.3828 111.891 32.5136 112.462 32.4112C114.811 31.9885 117.214 32.7184 118.89 34.3656C121.045 36.4835 121.594 39.7149 120.261 42.4058C119.796 43.3384 120.058 44.4671 120.884 45.1011C121.112 45.2776 121.337 45.4628 121.548 45.6698C122.899 46.999 123.644 48.7617 123.644 50.6356C123.642 52.516 122.897 54.2787 121.546 55.6078Z" fill="#973543"/>
</g>
<defs>
<clipPath id="clip0_63_178">
<rect width="128" height="128" fill="white"/>
</clipPath>
</defs>
</svg>
