<svg width="128" height="128" viewBox="0 0 128 128" fill="none" xmlns="http://www.w3.org/2000/svg">
<g clip-path="url(#clip0_63_284)">
<path d="M122.476 34.8357C117.919 23.614 109.421 9.01885 94.7942 3.19808C84.0639 -1.07426 71.6297 -0.0493932 57.8396 6.23565C40.5971 14.0963 34.9567 28.1851 41.9653 45.9092C44.1385 51.4065 43.3137 57.41 39.755 61.9688C36.1914 66.535 30.551 68.7848 24.6783 68.0291C15.3137 66.8017 8.12731 68.9008 3.8846 74.1067C0.637121 78.095 -2.23745 85.7112 2.50164 99.3432L2.59055 99.5654C2.92888 100.304 11.1427 117.717 32.2229 124.686C36.7767 126.192 41.4936 126.61 46.0549 127.012L46.776 127.076C48.2972 127.212 50.9249 127.388 54.3353 127.388C62.8479 127.388 76.2478 126.298 89.5563 120.791C108.945 112.77 121.246 98.4862 126.116 78.3346C129.539 64.1766 128.279 49.132 122.476 34.8357ZM121.315 77.1739C116.838 95.7055 105.517 108.846 87.667 116.23C70.0689 123.508 52.2609 122.604 47.2156 122.157L46.492 122.093C42.0147 121.698 37.7868 121.322 33.7762 119.996C15.5582 113.973 7.7791 98.9233 7.1222 97.5898C4.055 88.6919 4.26491 81.466 7.71489 77.2257C10.8191 73.4177 16.4621 71.9359 24.0313 72.9262C31.6795 73.9363 38.9993 70.9703 43.6495 65.0088C48.2948 59.0547 49.3789 51.2361 46.5562 44.0941C40.491 28.7507 44.9757 17.5265 59.8869 10.7303C72.4076 5.02556 83.5379 4.03527 92.9667 7.78653C105.974 12.9627 113.701 26.3626 117.897 36.6928C123.313 50.0284 124.493 64.0235 121.315 77.1739Z" fill="#973543"/>
<path d="M82.6316 46.3982C89.4402 46.3982 94.9795 40.8589 94.9795 34.0503C94.9795 27.2417 89.4402 21.7025 82.6316 21.7025C75.823 21.7025 70.2838 27.2417 70.2838 34.0503C70.2838 40.8589 75.823 46.3982 82.6316 46.3982ZM82.6316 26.6416C86.7163 26.6416 90.0403 29.9657 90.0403 34.0503C90.0403 38.135 86.7163 41.459 82.6316 41.459C78.547 41.459 75.2229 38.135 75.2229 34.0503C75.2229 29.9657 78.547 26.6416 82.6316 26.6416Z" fill="#973543"/>
<path d="M118.008 59.877C117.694 52.814 116.166 45.6894 113.35 38.7523C102.628 12.3527 85.0196 4.32168 61.1142 15.205C56.3282 17.3881 41.7677 24.0263 49.6431 43.9458C52.5103 51.2014 51.6805 59.0003 47.3686 65.3347C42.4863 72.5138 34.0379 76.27 25.3006 75.1167C18.7933 74.2474 13.911 75.539 11.6587 78.7124C9.27068 82.0734 9.2929 87.8942 11.723 95.0979L11.8662 95.4363C13.0985 97.8416 20.0454 110.101 35.7913 115.309C39.3697 116.492 43.279 116.838 47.4131 117.203L48.112 117.265C50.2062 117.452 52.4535 117.546 54.7946 117.546C101.445 117.546 113.496 88.5215 116.512 76.0403C117.751 70.911 118.223 65.6385 118.028 60.3289C118.043 60.1734 118.025 60.0276 118.008 59.877ZM63.164 19.6997C69.4194 16.8473 75.1809 15.4026 80.2879 15.4026C92.3962 15.4026 101.981 23.8856 108.774 40.6095C110.804 45.6103 112.093 50.7124 112.718 55.8047C101.657 52.6832 82.066 62.3861 78.7963 64.0703C64.0259 68.7674 57.1852 62.0329 55.3083 59.6498C56.8271 53.9772 56.5209 47.9144 54.234 42.1307C48.8183 28.4222 55.7084 23.0978 63.164 19.6997ZM51.4558 68.113C52.1991 67.0215 52.8338 65.8855 53.4067 64.7297C56.2937 67.3746 61.4328 70.6171 69.3428 70.6171C72.5878 70.6171 76.2996 70.0689 80.5077 68.7106C80.6386 68.6687 80.7646 68.6168 80.8881 68.5526C90.6157 63.485 107.473 57.3309 113.133 61.3266C113.234 65.9126 112.78 70.4591 111.713 74.8821C111.688 74.9809 111.659 75.0895 111.634 75.1908C106.255 73.6769 93.2112 72.1582 71.684 82.4834C64.3222 86.0149 57.9656 86.7039 52.7968 84.5381C47.7984 82.4439 45.0003 78.095 43.7606 75.6501C46.7364 73.6893 49.3739 71.1728 51.4558 68.113ZM48.554 112.343L47.8527 112.281C44.0076 111.943 40.3773 111.622 37.3422 110.619C23.5942 106.07 17.3338 95.2115 16.3435 93.3396C14.2271 86.9681 14.6123 83.0884 15.6866 81.5721C16.7609 80.0583 20.2281 79.4261 24.6561 80.0114C29.5952 80.6633 34.4429 79.9694 38.8363 78.2111C38.9845 79.0137 39.1401 79.9225 39.2833 80.9029C40.5428 89.492 45.3387 97.2267 52.4387 102.129C57.521 105.633 60.9562 108.794 61.1118 112.392C59.0793 112.523 56.9901 112.607 54.7946 112.607C52.6017 112.605 50.5001 112.516 48.554 112.343ZM66.0509 111.95C65.6533 105.258 59.0448 100.684 55.2441 98.0614C50.9051 95.0683 47.5909 90.8157 45.6943 85.9433C47.1464 87.141 48.8479 88.2301 50.826 89.0673C57.3679 91.8356 65.1026 91.1195 73.8226 86.936C94.0459 77.2356 105.868 78.7494 110.189 79.9274C106.085 91.2281 95.1103 108.399 66.0509 111.95Z" fill="#973543"/>
</g>
<defs>
<clipPath id="clip0_63_284">
<rect width="128" height="128" fill="white"/>
</clipPath>
</defs>
</svg>
