<svg width="128" height="128" viewBox="0 0 128 128" fill="none" xmlns="http://www.w3.org/2000/svg">
<g clip-path="url(#clip0_63_272)">
<path d="M116.936 38.5038C116.84 38.2817 116.685 38.1078 116.538 37.9339C114.799 30.1669 109.568 25.7546 105.549 22.3759C104.95 21.8735 104.371 21.3857 103.82 20.9026L103.774 20.8616C102.955 20.1202 102.818 19.2097 102.849 18.5793C102.902 17.3911 103.547 16.2222 104.571 15.4542C104.656 15.3914 104.716 15.3069 104.796 15.2392C105.09 14.9953 105.368 14.7369 105.622 14.4519C105.728 14.3312 105.829 14.208 105.928 14.08C106.163 13.7805 106.366 13.4617 106.552 13.1285C106.622 13.0029 106.696 12.8797 106.757 12.7493C106.933 12.3798 107.068 11.9934 107.179 11.5925C107.211 11.4789 107.259 11.3703 107.286 11.2543C107.399 10.7399 107.474 10.2086 107.474 9.66038V7.24528C107.474 3.25072 104.223 0 100.229 0H73.6628C69.6682 0 66.4175 3.25072 66.4175 7.24528V9.66038C66.4175 10.2158 66.4948 10.752 66.6131 11.2712C66.6421 11.392 66.688 11.5055 66.7242 11.6263C66.8402 12.032 66.9826 12.4257 67.1638 12.8C67.2217 12.9183 67.2869 13.0294 67.3522 13.1454C67.5599 13.5173 67.7941 13.8675 68.0598 14.1959C68.1322 14.2829 68.1999 14.3722 68.2747 14.4568C68.6201 14.8432 68.9968 15.1958 69.4171 15.5025C69.4267 15.5097 69.434 15.5194 69.4436 15.5266C70.4483 16.2488 71.1559 17.3694 71.2888 18.4537C71.3829 19.2314 71.1873 19.9125 70.7091 20.4776C70.5763 20.6322 70.4266 20.7843 70.272 20.9195C69.7383 21.376 69.178 21.8445 68.6008 22.3203C67.1589 23.5158 65.5843 24.832 64.0676 26.3487C62.5848 24.8417 61.0536 23.5448 59.6673 22.3783C59.0684 21.8759 58.4863 21.3857 57.9357 20.9026L57.8874 20.8616C57.0711 20.1202 56.9334 19.2121 56.9624 18.5793C57.0156 17.3935 57.6604 16.2222 58.6844 15.4542C58.7689 15.3914 58.8293 15.3069 58.909 15.2392C59.2036 14.9953 59.4814 14.7369 59.7349 14.4519C59.8412 14.3312 59.9426 14.208 60.0417 14.08C60.2759 13.7805 60.4788 13.4617 60.6648 13.1285C60.7348 13.0029 60.8097 12.8797 60.87 12.7493C61.0463 12.3798 61.1816 11.9934 61.2927 11.5925C61.3241 11.4789 61.3724 11.3703 61.3989 11.2543C61.5125 10.7399 61.5873 10.2086 61.5873 9.66038V7.24528C61.5873 3.25072 58.3366 0 54.342 0H27.776C23.7814 0 20.5307 3.25072 20.5307 7.24528V9.66038C20.5307 10.2158 20.608 10.752 20.7263 11.2712C20.7553 11.392 20.8012 11.5055 20.8374 11.6263C20.9509 12.0344 21.0934 12.4257 21.2746 12.8C21.3325 12.9183 21.3977 13.0294 21.4629 13.1454C21.6682 13.5173 21.9049 13.8675 22.1706 14.1959C22.243 14.2829 22.3106 14.3722 22.3855 14.4568C22.7309 14.8432 23.1076 15.1958 23.5279 15.5025C23.5375 15.5097 23.5448 15.5194 23.5544 15.5266C24.5591 16.2488 25.2667 17.3694 25.3996 18.4537C25.4937 19.2314 25.2981 19.9125 24.8199 20.4776C24.6871 20.6322 24.5374 20.7843 24.3828 20.9195C23.8322 21.3881 23.2549 21.8663 22.6608 22.3589C17.6857 26.4719 10.8703 32.1087 10.8703 43.4717V58.4042C10.8655 58.4791 10.8679 58.5515 10.8703 58.6264V116.456C10.8703 122.822 16.0507 128 22.4169 128H59.7011C61.2395 128 62.7031 127.686 64.0459 127.135C65.4273 127.705 66.8522 128 68.3013 128H105.588C111.954 128 117.132 122.82 117.132 116.453V43.4717C117.132 42.3873 117.055 41.373 116.939 40.39C117.183 39.8056 117.205 39.1318 116.936 38.5038ZM112.283 62.7925H105.037C103.704 62.7925 102.622 63.872 102.622 65.2075C102.622 66.5431 103.704 67.6226 105.037 67.6226H112.283V79.6981H100.207C98.874 79.6981 97.792 80.7777 97.792 82.1132C97.792 83.4488 98.874 84.5283 100.207 84.5283H112.283V89.3585H105.037C103.704 89.3585 102.622 90.438 102.622 91.7736C102.622 93.1091 103.704 94.1887 105.037 94.1887H112.283V99.0189H90.5467V57.9623H112.283V62.7925ZM71.2477 7.24528C71.2477 5.91215 72.3321 4.83019 73.6628 4.83019H100.229C101.56 4.83019 102.644 5.91215 102.644 7.24528V9.66038C102.644 10.0178 102.552 10.3608 102.405 10.6747C102.366 10.7568 102.301 10.822 102.253 10.9017C102.117 11.1191 101.958 11.322 101.755 11.4934C101.333 11.8388 100.813 12.0755 100.229 12.0755H73.6628C73.0711 12.0755 72.5494 11.8388 72.1292 11.4838C72.0447 11.4137 71.9602 11.3437 71.8877 11.264C71.7235 11.0829 71.5834 10.8848 71.4796 10.6602C71.4554 10.6071 71.4385 10.5491 71.4168 10.4936C71.3202 10.2328 71.2477 9.95502 71.2477 9.66038V7.24528ZM67.1783 30.051C68.6104 28.5802 70.1657 27.2906 71.68 26.0371C72.2814 25.5396 72.8658 25.0566 73.4261 24.5736C73.7763 24.2693 74.0951 23.9481 74.3849 23.6075C75.7374 22.016 76.3387 19.9777 76.0803 17.8669C76.0393 17.5408 75.9282 17.2269 75.8485 16.9057H98.2581C98.1519 17.3838 98.0432 17.8645 98.0214 18.3571C97.9152 20.707 98.7943 22.8565 100.567 24.4722L100.632 24.5325C101.207 25.0373 101.816 25.5469 102.439 26.0734C106.042 29.1043 109.988 32.4806 111.568 38.1247C104.984 40.6195 99.2338 41.1315 93.6501 39.7114C91.1312 39.069 88.6581 38.1561 86.2672 37.2746C81.0626 35.3594 75.6722 33.4032 69.3349 33.9152C69.2239 33.6592 69.1103 33.4032 68.9896 33.1544C68.9775 33.1278 68.9654 33.0989 68.9509 33.0723C68.4245 31.9976 67.8328 31.0026 67.1903 30.0776C67.1855 30.0679 67.1831 30.0607 67.1783 30.051ZM25.3609 7.24528C25.3609 5.91215 26.4453 4.83019 27.776 4.83019H54.342C55.6728 4.83019 56.7571 5.91215 56.7571 7.24528V9.66038C56.7571 10.0178 56.6654 10.3608 56.518 10.6747C56.4794 10.7568 56.4142 10.822 56.3659 10.9017C56.2306 11.1191 56.0712 11.322 55.8684 11.4934C55.4457 11.8388 54.9265 12.0755 54.342 12.0755H27.776C27.1843 12.0755 26.6626 11.8388 26.2424 11.4838C26.1579 11.4137 26.0734 11.3437 26.0009 11.264C25.8367 11.0829 25.6966 10.8848 25.5928 10.6602C25.5686 10.6071 25.5517 10.5491 25.53 10.4936C25.4334 10.2328 25.3609 9.95502 25.3609 9.66038V7.24528ZM25.7401 26.0806C26.3583 25.5686 26.9621 25.0711 27.5393 24.5736C27.8895 24.2693 28.2083 23.9481 28.4981 23.6075C29.8506 22.016 30.4519 19.9777 30.1935 17.8669C30.1525 17.5408 30.0414 17.2269 29.9617 16.9057H52.3713C52.2626 17.3863 52.1564 17.8669 52.1346 18.3595C52.0284 20.7118 52.9099 22.8613 54.6802 24.4746L54.7454 24.5325C55.3202 25.0373 55.9288 25.5493 56.5543 26.0758C58.8583 28.0127 61.3144 30.08 63.1982 32.7922C63.2248 32.8308 63.2465 32.8694 63.2731 32.9081C63.6788 33.5022 64.0507 34.1325 64.3961 34.7918C64.4565 34.9054 64.5168 35.0213 64.5748 35.1348C64.9226 35.84 65.2341 36.5839 65.4925 37.3784C65.5143 37.4485 65.5336 37.5185 65.5553 37.5885C65.8186 38.4242 66.0335 39.3057 66.1784 40.2548C66.1808 40.2741 66.1833 40.2959 66.1857 40.3152C66.333 41.3029 66.4175 42.3511 66.4175 43.4741V54.6463C56.5035 51.3425 48.7366 53.0258 39.808 56.832C31.0654 60.5633 24.9793 60.5899 15.7005 56.8851V43.4717C15.7005 34.3813 21.0331 29.9713 25.7401 26.0806ZM15.7005 116.456V62.0558C20.1395 63.6764 24.0374 64.5217 27.8485 64.5217C32.2777 64.5217 36.6297 63.4349 41.7014 61.2709C51.7023 57.0059 58.1748 56.6074 66.4175 59.7905V116.451C66.4175 117.019 66.3282 117.572 66.1857 118.108C66.1615 118.207 66.1253 118.299 66.0963 118.395C65.9369 118.9 65.7365 119.393 65.4636 119.847C65.4611 119.851 65.4587 119.856 65.4563 119.859C64.8405 120.873 63.9493 121.733 62.8528 122.327L62.2297 122.665C61.4472 122.986 60.5947 123.17 59.7011 123.17H22.4145C18.7122 123.17 15.7005 120.158 15.7005 116.456ZM105.588 123.17H69.0548C69.2963 122.834 69.4992 122.472 69.7045 122.11C69.8421 121.87 69.9798 121.634 70.0981 121.385C70.2454 121.074 70.3759 120.757 70.4966 120.434C70.6343 120.069 70.7454 119.697 70.8444 119.32C70.912 119.057 70.9893 118.798 71.0376 118.528C71.1632 117.852 71.2453 117.166 71.2453 116.466C71.2453 116.463 71.2453 116.458 71.2453 116.456V58.141C71.2453 58.1386 71.2453 58.1362 71.2453 58.1313V43.4717C71.2453 42.2497 71.1535 41.1049 71.0086 40.0085C70.9941 39.9046 70.9869 39.7959 70.9724 39.6921C70.9217 39.3443 70.8565 39.011 70.7912 38.6753C75.6408 38.5401 80.0048 40.1123 84.5935 41.8053C87.1004 42.7303 89.6918 43.6842 92.4547 44.387C94.9277 45.0174 97.408 45.3362 99.9414 45.3362C103.866 45.3362 107.933 44.5392 112.266 42.9983C112.268 43.1626 112.299 43.3026 112.299 43.4693V53.1297H85.7165V103.847H112.304V116.451C112.304 120.156 109.29 123.17 105.588 123.17Z" fill="#973543"/>
</g>
<defs>
<clipPath id="clip0_63_272">
<rect width="128" height="128" fill="white"/>
</clipPath>
</defs>
</svg>
