<svg width="128" height="128" viewBox="0 0 128 128" fill="none" xmlns="http://www.w3.org/2000/svg">
<g clip-path="url(#clip0_63_140)">
<path d="M103.583 21.1312C100.592 19.7547 99.2449 19.0024 98.899 17.545C98.9529 17.5248 99.0023 17.4933 99.0585 17.4731C99.1775 17.426 99.2898 17.3676 99.4043 17.3137C99.6558 17.1969 99.8961 17.0667 100.13 16.9207C100.242 16.8488 100.354 16.7792 100.462 16.7029C100.707 16.5277 100.934 16.3368 101.154 16.1325C101.223 16.0674 101.297 16.0112 101.362 15.9439C101.634 15.6676 101.883 15.3667 102.104 15.0456C102.16 14.9648 102.202 14.8772 102.254 14.7964C102.413 14.5426 102.557 14.2821 102.683 14.0081C102.737 13.8869 102.786 13.7656 102.833 13.6399C102.934 13.3771 103.017 13.1054 103.087 12.8269C103.116 12.7057 103.152 12.5867 103.175 12.4632C103.249 12.0612 103.298 11.6502 103.298 11.2281V6.73684C103.298 3.0226 100.276 0 96.5613 0H29.1929C25.4787 0 22.4561 3.0226 22.4561 6.73684V11.2281C22.4561 11.6884 22.5032 12.1353 22.5908 12.5687C22.6223 12.7259 22.6874 12.8719 22.7301 13.0246C22.8042 13.294 22.8715 13.5658 22.9771 13.8195C23.0489 13.9924 23.1522 14.1474 23.2398 14.3135C23.3521 14.5291 23.4531 14.7514 23.5879 14.9535C23.6979 15.1197 23.8349 15.2612 23.9606 15.4184C24.1044 15.5958 24.2369 15.7844 24.3963 15.9461C24.5378 16.0898 24.7017 16.2088 24.8544 16.3391C25.0273 16.4851 25.189 16.64 25.3754 16.7702C25.5416 16.8848 25.7257 16.9724 25.9009 17.0712C26.0985 17.1834 26.2894 17.3047 26.5004 17.3968C26.6868 17.4776 26.8867 17.5293 27.0821 17.5944C27.3021 17.6662 27.5155 17.7493 27.7423 17.801C27.9489 17.8459 28.1622 17.8594 28.3755 17.8841C28.5731 17.9088 28.764 17.9559 28.9661 17.9627C28.4698 19.1596 27.109 19.8939 24.4165 21.1335C19.7973 23.2533 13.4736 26.1637 13.4736 36.8797V106.927C13.4736 118.546 22.9277 128 34.5465 128H93.4534C105.072 128 114.526 118.546 114.526 106.927V36.8797C114.526 26.1637 108.203 23.2533 103.583 21.1312ZM26.9473 6.73684C26.9473 5.49726 27.9534 4.49123 29.1929 4.49123H96.5613C97.8009 4.49123 98.807 5.49726 98.807 6.73684V11.2281C98.807 12.4676 97.8009 13.4737 96.5613 13.4737H94.3157H33.6842H29.1929C27.9534 13.4737 26.9473 12.4676 26.9473 11.2281V6.73684ZM110.035 106.927C110.035 116.071 102.598 123.509 93.4534 123.509H34.5465C25.4046 123.509 17.9649 116.071 17.9649 106.927V36.8797C17.9649 29.0425 22.0115 27.1832 26.2938 25.2115C29.4399 23.7631 32.9386 22.1103 33.5562 17.9649H94.4437C95.0613 22.1103 98.5599 23.7631 101.706 25.2115C105.988 27.1809 110.035 29.0425 110.035 36.8797V106.927ZM32.0965 5.14919L35.2718 8.32449L30.7806 12.8157L27.6053 9.64042L32.0965 5.14919ZM41.079 5.14919L44.2543 8.32449L39.763 12.8157L36.5877 9.64042L41.079 5.14919ZM50.0614 5.14919L53.2367 8.32449L48.7455 12.8157L45.5702 9.64042L50.0614 5.14919ZM59.0439 5.14919L62.2192 8.32449L57.7279 12.8157L54.5526 9.64042L59.0439 5.14919ZM68.0263 5.14919L71.2016 8.32449L66.7104 12.8157L63.5351 9.64042L68.0263 5.14919ZM77.0088 5.14919L80.1841 8.32449L75.6929 12.8157L72.5176 9.64042L77.0088 5.14919ZM85.9912 5.14919L89.1665 8.32449L84.6753 12.8157L81.5 9.64042L85.9912 5.14919ZM94.9714 5.14919L98.1468 8.32449L93.6555 12.8157L90.4802 9.64042L94.9714 5.14919ZM107.789 48.2807C107.789 34.0413 99.7299 22.4561 89.8245 22.4561C85.1469 22.4561 80.8959 25.0611 77.6959 29.2873C75.9803 25.2766 71.9988 22.4561 67.3684 22.4561C61.1772 22.4561 56.1403 27.4931 56.1403 33.6842C56.1403 34.5443 56.2571 35.3729 56.4412 36.1791C55.6171 36.0196 54.766 35.9298 53.8947 35.9298C50.4409 35.9298 47.2993 37.2458 44.9122 39.3903V38.1754C44.9122 31.9843 39.8753 26.9474 33.6842 26.9474C27.493 26.9474 22.4561 31.9843 22.4561 38.1754V53.8947C22.4561 58.1906 24.9083 61.8846 28.4586 63.7732C23.3319 66.7576 20.2105 70.7571 20.2105 75.2281C20.2105 80.7927 25.0251 85.632 32.5703 88.6793C25.3597 91.0888 20.2105 97.2261 20.2105 104.421C20.2105 113.709 28.773 121.263 39.2982 121.263C45.2625 121.263 50.5936 118.833 54.0968 115.041C54.9591 118.589 58.5656 121.263 62.8771 121.263C67.831 121.263 71.8596 117.738 71.8596 113.404C71.8596 111.187 70.7974 109.191 69.1042 107.76C70.0698 107.718 71.0085 107.578 71.9045 107.343C71.8978 107.495 71.8596 107.637 71.8596 107.789C71.8596 113.981 76.8965 119.018 83.0877 119.018H94.3157C100.507 119.018 105.544 113.981 105.544 107.789C105.544 103.985 103.633 100.63 100.731 98.5982C104.98 95.9528 107.789 91.4279 107.789 86.2967C107.789 79.6452 103.074 74.0109 96.6175 72.174C103.163 68.3138 107.789 59.0641 107.789 48.2807ZM75.7715 64.3234C72.3626 62.1496 67.923 60.4744 62.8255 59.4639C65.6056 56.9937 67.3684 53.4052 67.3684 49.4035C67.3684 47.7956 67.0697 46.2596 66.551 44.8292C66.8272 44.8494 67.0877 44.9123 67.3684 44.9123C69.084 44.9123 70.6919 44.4946 72.1493 43.8029C71.9696 45.2604 71.8596 46.7514 71.8596 48.2807C71.8596 54.3439 73.3305 59.913 75.7715 64.3234ZM76.4653 88.0011C75.8905 87.5565 75.2662 87.1635 74.6082 86.8199C75.228 86.4674 75.8231 86.1036 76.3823 85.7218C76.3733 85.9149 76.3508 86.1013 76.3508 86.2967C76.3508 86.8738 76.3957 87.4397 76.4653 88.0011ZM83.0001 74.2669C82.9147 73.4316 82.7598 72.6097 82.4656 71.8147C83.2808 72.3447 84.1274 72.7826 85.0032 73.1329C84.3048 73.4653 83.6356 73.8425 83.0001 74.2669ZM67.3684 26.9474C71.0826 26.9474 74.1052 29.97 74.1052 33.6842C74.1052 37.3985 71.0826 40.4211 67.3684 40.4211C63.6541 40.4211 60.6315 37.3985 60.6315 33.6842C60.6315 29.97 63.6541 26.9474 67.3684 26.9474ZM53.8947 40.4211C58.8485 40.4211 62.8771 44.4497 62.8771 49.4035C62.8771 54.3573 58.8485 58.386 53.8947 58.386C48.9409 58.386 44.9122 54.3573 44.9122 49.4035C44.9122 44.4497 48.9409 40.4211 53.8947 40.4211ZM26.9473 38.1754C26.9473 34.4612 29.9699 31.4386 33.6842 31.4386C37.3984 31.4386 40.421 34.4612 40.421 38.1754V53.8947C40.421 57.609 37.3984 60.6316 33.6842 60.6316C29.9699 60.6316 26.9473 57.609 26.9473 53.8947V38.1754ZM24.7017 75.2281C24.7017 69.2637 35.5301 62.8772 51.6491 62.8772C67.7681 62.8772 78.5964 69.2637 78.5964 75.2281C78.5964 79.104 74.0064 83.1461 66.3825 85.5085C65.4012 85.6634 64.4581 85.9149 63.5688 86.2675C60.0634 87.0872 56.0639 87.5789 51.6491 87.5789C35.5301 87.5789 24.7017 81.1924 24.7017 75.2281ZM52.2127 92.0545C53.9598 92.0387 55.6665 91.9467 57.326 91.7917C56.5804 93.2289 56.1493 94.8255 56.1425 96.5165C55.1253 94.8368 53.7869 93.3367 52.2127 92.0545ZM39.2982 116.772C31.2499 116.772 24.7017 111.23 24.7017 104.421C24.7017 97.6124 31.2499 92.0702 39.2982 92.0702C47.3465 92.0702 53.8947 97.6124 53.8947 104.421C53.8947 111.23 47.3465 116.772 39.2982 116.772ZM58.2983 102.89C59.1157 103.974 60.142 104.917 61.3164 105.683C60.1824 105.858 59.1292 106.222 58.186 106.734C58.3028 105.975 58.3859 105.207 58.3859 104.421C58.3859 103.905 58.35 103.395 58.2983 102.89ZM62.8771 116.772C60.4429 116.772 58.3859 115.229 58.3859 113.404C58.3859 111.578 60.4429 110.035 62.8771 110.035C65.3114 110.035 67.3684 111.578 67.3684 113.404C67.3684 115.229 65.3114 116.772 62.8771 116.772ZM68.4912 103.298C64.1571 103.298 60.6315 100.276 60.6315 96.5614C60.6315 93.8509 62.5178 91.5267 65.2148 90.4578C65.8683 90.2939 66.515 90.1277 67.1416 89.9413C67.5795 89.8762 68.0286 89.8246 68.4912 89.8246C72.8252 89.8246 76.3508 92.8472 76.3508 96.5614C76.3508 97.655 76.0162 98.6745 75.475 99.5885C74.8508 100.17 74.2714 100.797 73.7908 101.506C72.3896 102.607 70.5392 103.298 68.4912 103.298ZM94.3157 101.053C98.03 101.053 101.053 104.075 101.053 107.789C101.053 111.504 98.03 114.526 94.3157 114.526H83.0877C79.3734 114.526 76.3508 111.504 76.3508 107.789C76.3508 106.563 76.7034 105.429 77.2783 104.439C77.907 103.86 78.4595 103.215 78.9378 102.524C80.0853 101.616 81.5157 101.053 83.0877 101.053H94.3157ZM103.298 86.2967C103.298 91.9557 98.2613 96.5614 92.0701 96.5614C85.879 96.5614 80.842 91.9557 80.842 86.2967C80.842 80.6378 85.879 76.032 92.0701 76.032C98.2613 76.032 103.298 80.6355 103.298 86.2967ZM89.8245 69.614C82.5218 69.614 76.3508 59.8434 76.3508 48.2807C76.3508 36.718 82.5218 26.9474 89.8245 26.9474C97.1272 26.9474 103.298 36.718 103.298 48.2807C103.298 59.8434 97.1272 69.614 89.8245 69.614Z" fill="#973543"/>
</g>
<defs>
<clipPath id="clip0_63_140">
<rect width="128" height="128" fill="white"/>
</clipPath>
</defs>
</svg>
