<svg width="128" height="128" viewBox="0 0 128 128" fill="none" xmlns="http://www.w3.org/2000/svg">
<g clip-path="url(#clip0_63_267)">
<path d="M127.517 89.9295C126.772 88.4788 125.296 87.5805 123.666 87.5805H121.207C120.165 60.1948 100.183 37.5923 74.01 32.5171C74.0481 32.1556 74.1065 31.7963 74.1065 31.4392C74.1065 25.2479 69.0695 20.2109 62.8782 20.2109C56.687 20.2109 51.65 25.2479 51.65 31.4392C51.65 31.7963 51.7061 32.1578 51.7465 32.5171C25.5712 37.59 5.58939 60.1948 4.5474 87.5805H4.33407C2.70372 87.5805 1.22833 88.4788 0.48277 89.9295C-0.262787 91.3802 -0.13703 93.1026 0.810636 94.4298L5.88581 101.535C8.6839 105.454 13.2291 107.791 18.0415 107.791H109.961C114.773 107.791 119.318 105.454 122.116 101.535L127.194 94.4298C128.139 93.1026 128.263 91.3779 127.517 89.9295ZM56.1548 31.8255C56.1458 31.6952 56.1413 31.565 56.1413 31.4392C56.1413 27.7249 59.1639 24.7022 62.8782 24.7022C66.5926 24.7022 69.6152 27.7249 69.6152 31.4392C69.6152 31.5672 69.6107 31.6952 69.6017 31.8255C69.4962 31.8142 69.3906 31.8097 69.2873 31.7985C68.5148 31.7132 67.7378 31.6525 66.9564 31.5986C66.6689 31.5784 66.3837 31.5492 66.0963 31.5335C65.0273 31.4729 63.9562 31.4392 62.8782 31.4392C61.8003 31.4392 60.7269 31.4729 59.6625 31.5313C59.375 31.547 59.0898 31.5762 58.8024 31.5964C58.0209 31.6503 57.2439 31.7132 56.4714 31.7963C56.3659 31.8097 56.2603 31.812 56.1548 31.8255ZM54.8074 36.5346C56.0088 36.3549 57.2214 36.2247 58.4341 36.1259C58.6811 36.1057 58.9281 36.0877 59.1752 36.072C61.6409 35.9058 64.1178 35.9058 66.5836 36.072C66.8306 36.09 67.0776 36.1079 67.3246 36.1259C68.5373 36.2247 69.7477 36.3549 70.9514 36.5346C96.1274 40.332 115.658 61.614 116.727 87.5805H9.02748C10.0987 61.614 29.6269 40.332 54.8074 36.5346ZM118.46 98.9233C116.502 101.663 113.325 103.3 109.958 103.3H18.0415C14.6753 103.3 11.4977 101.663 9.53949 98.9256L4.64397 92.0718H121.265H123.356L118.46 98.9233Z" fill="#973543"/>
<path d="M62.8468 40.4219C59.1572 40.4219 55.4855 40.8284 51.9329 41.6278C50.7225 41.8996 49.9635 43.101 50.2352 44.3114C50.471 45.3556 51.3984 46.063 52.4247 46.063C52.5886 46.063 52.7548 46.045 52.921 46.0091C56.1502 45.2815 59.4895 44.9132 62.8468 44.9132C62.8558 44.9132 62.8647 44.9132 62.876 44.9132C64.1156 44.9132 65.1216 43.9094 65.1216 42.6698C65.1239 41.419 64.1268 40.3793 62.8468 40.4219Z" fill="#973543"/>
<path d="M38.5129 46.9321C26.8265 53.8554 18.3199 66.3817 15.7554 80.4395C15.5331 81.6611 16.3415 82.8288 17.5632 83.0512C17.6979 83.0781 17.8326 83.0893 17.9674 83.0893C19.0318 83.0893 19.9772 82.3303 20.1749 81.2479C22.5081 68.4522 30.2197 57.0667 40.8034 50.7968C41.8701 50.1658 42.2227 48.787 41.5916 47.7203C40.9561 46.6536 39.5818 46.301 38.5129 46.9321Z" fill="#973543"/>
</g>
<defs>
<clipPath id="clip0_63_267">
<rect width="128" height="128" fill="white"/>
</clipPath>
</defs>
</svg>
