<svg width="128" height="128" viewBox="0 0 128 128" fill="none" xmlns="http://www.w3.org/2000/svg">
<g clip-path="url(#clip0_63_219)">
<path d="M109.382 112.873C110.667 112.873 111.709 111.831 111.709 110.545C111.709 109.26 110.667 108.218 109.382 108.218C108.097 108.218 107.055 109.26 107.055 110.545C107.055 111.831 108.097 112.873 109.382 112.873Z" fill="#973543"/>
<path d="M104.727 105.891C106.013 105.891 107.055 104.849 107.055 103.564C107.055 102.278 106.013 101.236 104.727 101.236C103.442 101.236 102.4 102.278 102.4 103.564C102.4 104.849 103.442 105.891 104.727 105.891Z" fill="#973543"/>
<path d="M100.073 98.9089C101.358 98.9089 102.4 97.867 102.4 96.5817C102.4 95.2963 101.358 94.2544 100.073 94.2544C98.7874 94.2544 97.7455 95.2963 97.7455 96.5817C97.7455 97.867 98.7874 98.9089 100.073 98.9089Z" fill="#973543"/>
<path d="M109.382 98.9089C110.667 98.9089 111.709 97.867 111.709 96.5817C111.709 95.2963 110.667 94.2544 109.382 94.2544C108.097 94.2544 107.055 95.2963 107.055 96.5817C107.055 97.867 108.097 98.9089 109.382 98.9089Z" fill="#973543"/>
<path d="M95.4182 91.9273C96.7035 91.9273 97.7455 90.8853 97.7455 89.6C97.7455 88.3147 96.7035 87.2727 95.4182 87.2727C94.1329 87.2727 93.0909 88.3147 93.0909 89.6C93.0909 90.8853 94.1329 91.9273 95.4182 91.9273Z" fill="#973543"/>
<path d="M104.727 91.9273C106.013 91.9273 107.055 90.8853 107.055 89.6C107.055 88.3147 106.013 87.2727 104.727 87.2727C103.442 87.2727 102.4 88.3147 102.4 89.6C102.4 90.8853 103.442 91.9273 104.727 91.9273Z" fill="#973543"/>
<path d="M90.7637 84.9453C92.049 84.9453 93.0909 83.9034 93.0909 82.618C93.0909 81.3327 92.049 80.2908 90.7637 80.2908C89.4784 80.2908 88.4364 81.3327 88.4364 82.618C88.4364 83.9034 89.4784 84.9453 90.7637 84.9453Z" fill="#973543"/>
<path d="M100.073 84.9453C101.358 84.9453 102.4 83.9034 102.4 82.618C102.4 81.3327 101.358 80.2908 100.073 80.2908C98.7874 80.2908 97.7455 81.3327 97.7455 82.618C97.7455 83.9034 98.7874 84.9453 100.073 84.9453Z" fill="#973543"/>
<path d="M114.036 119.854C115.322 119.854 116.364 118.813 116.364 117.527C116.364 116.242 115.322 115.2 114.036 115.2C112.751 115.2 111.709 116.242 111.709 117.527C111.709 118.813 112.751 119.854 114.036 119.854Z" fill="#973543"/>
<path d="M104.727 119.854C106.013 119.854 107.055 118.813 107.055 117.527C107.055 116.242 106.013 115.2 104.727 115.2C103.442 115.2 102.4 116.242 102.4 117.527C102.4 118.813 103.442 119.854 104.727 119.854Z" fill="#973543"/>
<path d="M100.073 112.873C101.358 112.873 102.4 111.831 102.4 110.545C102.4 109.26 101.358 108.218 100.073 108.218C98.7874 108.218 97.7455 109.26 97.7455 110.545C97.7455 111.831 98.7874 112.873 100.073 112.873Z" fill="#973543"/>
<path d="M95.4182 105.891C96.7035 105.891 97.7455 104.849 97.7455 103.564C97.7455 102.278 96.7035 101.236 95.4182 101.236C94.1329 101.236 93.0909 102.278 93.0909 103.564C93.0909 104.849 94.1329 105.891 95.4182 105.891Z" fill="#973543"/>
<path d="M90.7637 98.9089C92.049 98.9089 93.0909 97.867 93.0909 96.5817C93.0909 95.2963 92.049 94.2544 90.7637 94.2544C89.4784 94.2544 88.4364 95.2963 88.4364 96.5817C88.4364 97.867 89.4784 98.9089 90.7637 98.9089Z" fill="#973543"/>
<path d="M86.1091 91.9273C87.3945 91.9273 88.4364 90.8853 88.4364 89.6C88.4364 88.3147 87.3945 87.2727 86.1091 87.2727C84.8238 87.2727 83.7819 88.3147 83.7819 89.6C83.7819 90.8853 84.8238 91.9273 86.1091 91.9273Z" fill="#973543"/>
<path d="M90.7637 112.873C92.049 112.873 93.0909 111.831 93.0909 110.545C93.0909 109.26 92.049 108.218 90.7637 108.218C89.4784 108.218 88.4364 109.26 88.4364 110.545C88.4364 111.831 89.4784 112.873 90.7637 112.873Z" fill="#973543"/>
<path d="M86.1091 105.891C87.3945 105.891 88.4364 104.849 88.4364 103.564C88.4364 102.278 87.3945 101.236 86.1091 101.236C84.8238 101.236 83.7819 102.278 83.7819 103.564C83.7819 104.849 84.8238 105.891 86.1091 105.891Z" fill="#973543"/>
<path d="M81.4546 98.9089C82.7399 98.9089 83.7819 97.867 83.7819 96.5817C83.7819 95.2963 82.7399 94.2544 81.4546 94.2544C80.1693 94.2544 79.1273 95.2963 79.1273 96.5817C79.1273 97.867 80.1693 98.9089 81.4546 98.9089Z" fill="#973543"/>
<path d="M95.4182 119.854C96.7035 119.854 97.7455 118.813 97.7455 117.527C97.7455 116.242 96.7035 115.2 95.4182 115.2C94.1329 115.2 93.0909 116.242 93.0909 117.527C93.0909 118.813 94.1329 119.854 95.4182 119.854Z" fill="#973543"/>
<path d="M86.1091 119.854C87.3945 119.854 88.4364 118.813 88.4364 117.527C88.4364 116.242 87.3945 115.2 86.1091 115.2C84.8238 115.2 83.7819 116.242 83.7819 117.527C83.7819 118.813 84.8238 119.854 86.1091 119.854Z" fill="#973543"/>
<path d="M81.4546 112.873C82.7399 112.873 83.7819 111.831 83.7819 110.545C83.7819 109.26 82.7399 108.218 81.4546 108.218C80.1693 108.218 79.1273 109.26 79.1273 110.545C79.1273 111.831 80.1693 112.873 81.4546 112.873Z" fill="#973543"/>
<path d="M76.8001 105.891C78.0854 105.891 79.1273 104.849 79.1273 103.564C79.1273 102.278 78.0854 101.236 76.8001 101.236C75.5147 101.236 74.4728 102.278 74.4728 103.564C74.4728 104.849 75.5147 105.891 76.8001 105.891Z" fill="#973543"/>
<path d="M72.1455 112.873C73.4308 112.873 74.4728 111.831 74.4728 110.545C74.4728 109.26 73.4308 108.218 72.1455 108.218C70.8602 108.218 69.8182 109.26 69.8182 110.545C69.8182 111.831 70.8602 112.873 72.1455 112.873Z" fill="#973543"/>
<path d="M76.8001 119.854C78.0854 119.854 79.1273 118.813 79.1273 117.527C79.1273 116.242 78.0854 115.2 76.8001 115.2C75.5147 115.2 74.4728 116.242 74.4728 117.527C74.4728 118.813 75.5147 119.854 76.8001 119.854Z" fill="#973543"/>
<path d="M67.4908 119.854C68.7762 119.854 69.8181 118.813 69.8181 117.527C69.8181 116.242 68.7762 115.2 67.4908 115.2C66.2055 115.2 65.1636 116.242 65.1636 117.527C65.1636 118.813 66.2055 119.854 67.4908 119.854Z" fill="#973543"/>
<path d="M124.216 106.324C121.854 103.401 118.547 98.0177 115.351 92.8093C112.002 87.3495 108.835 82.1922 106.398 79.1831C102.605 74.5029 97.9479 71.645 93.0886 71.0888V3.49085C93.0886 2.20387 92.046 1.16357 90.7613 1.16357H18.6321C18.6205 1.16357 18.6089 1.17056 18.5972 1.17056C18.5856 1.17056 18.574 1.16357 18.5623 1.16357H2.32727C1.04262 1.16357 0 2.20387 0 3.49085V110.545C0 111.474 0.553891 112.316 1.408 112.684L17.6431 119.666C17.9386 119.792 18.2505 119.854 18.5623 119.854C18.5763 119.854 18.5903 119.85 18.6042 119.85C18.6159 119.85 18.6228 119.854 18.6345 119.854H54.6211C54.7561 120.46 54.9376 121.051 55.2192 121.605C56.4364 123.99 59.5503 126.836 67.463 126.836H109.726C118.509 126.836 124.849 124.116 127.113 119.373C128.945 115.535 127.916 110.901 124.216 106.324ZM16.2351 113.992L4.65455 109.014V5.81812H16.2351V113.992ZM20.9594 5.81812H88.4364V71.2145C87.8127 71.3215 87.1959 71.4682 86.5838 71.6497C86.4186 71.6986 86.2557 71.7684 86.0928 71.8219C85.6204 71.9778 85.1479 72.1431 84.6848 72.3432C84.4521 72.4433 84.2263 72.562 83.9982 72.6714C83.6073 72.8599 83.2186 73.053 82.8369 73.2718C82.5949 73.4091 82.3575 73.5604 82.1201 73.7093C81.7571 73.9374 81.401 74.1771 81.0473 74.4331C80.8122 74.603 80.5772 74.7775 80.3468 74.9614C79.9953 75.2383 79.6532 75.5316 79.3135 75.8341C79.097 76.0273 78.8782 76.2158 78.6665 76.4206C78.3034 76.7697 77.9543 77.1421 77.6052 77.5214C77.4307 77.7122 77.2515 77.8891 77.0816 78.0869C76.5719 78.6781 76.0739 79.2971 75.5991 79.9557C73.5092 82.8509 70.9562 87.2378 68.224 92.0575C67.6631 93.0466 67.0976 94.045 66.5228 95.0644C65.4708 96.9285 64.4096 98.8043 63.3716 100.613C61.2259 104.346 59.1756 107.771 57.5325 110.038C57.5023 110.08 57.4813 110.12 57.4511 110.161C57.1229 110.62 56.825 111.074 56.5481 111.523C56.4666 111.658 56.3945 111.793 56.3177 111.928C56.1059 112.296 55.9081 112.661 55.7312 113.024C55.6637 113.161 55.6032 113.299 55.5404 113.436C55.3775 113.797 55.2332 114.155 55.1052 114.509C55.0586 114.637 55.0097 114.767 54.9679 114.895C54.9353 114.995 54.8911 115.1 54.8608 115.2H20.9594V5.81812ZM67.463 122.182C63.1901 122.182 60.2391 121.2 59.3664 119.491V119.487C60.0367 119.077 60.5091 118.372 60.5091 117.527C60.5091 116.794 60.1484 116.166 59.6154 115.74C59.6527 115.651 59.6736 115.568 59.7132 115.477C59.7411 115.412 59.776 115.344 59.8063 115.277C59.9552 114.953 60.1297 114.62 60.3252 114.283C60.3764 114.195 60.423 114.106 60.4788 114.018C60.7232 113.61 60.9932 113.196 61.298 112.773C61.3748 112.666 61.4586 112.538 61.5377 112.428C61.9148 112.684 62.3453 112.873 62.8364 112.873C64.121 112.873 65.1636 111.83 65.1636 110.545C65.1636 109.712 64.7005 109.014 64.0419 108.602C64.6796 107.569 65.3382 106.473 66.0154 105.323C66.418 105.663 66.9207 105.891 67.4909 105.891C68.7756 105.891 69.8182 104.848 69.8182 103.564C69.8182 102.558 69.1735 101.723 68.2822 101.397C68.4684 101.069 68.6569 100.741 68.8431 100.41C69.3201 99.57 69.7949 98.7298 70.2697 97.8897C70.6909 98.4901 71.3565 98.909 72.1455 98.909C73.4301 98.909 74.4727 97.8664 74.4727 96.5818C74.4727 95.353 73.5139 94.3755 72.3084 94.2871C73.0857 92.9163 73.856 91.5711 74.61 90.2772C74.9033 91.2244 75.7551 91.9272 76.8 91.9272C78.0847 91.9272 79.1273 90.8846 79.1273 89.5999C79.1273 88.3153 78.0847 87.2727 76.8 87.2727C76.6348 87.2727 76.4881 87.3332 76.3322 87.3681C77.3679 85.6575 78.3337 84.1495 79.1924 82.937C79.353 84.0634 80.2816 84.9454 81.4545 84.9454C82.7392 84.9454 83.7818 83.9028 83.7818 82.6181C83.7818 81.3335 82.7392 80.2909 81.4545 80.2909C81.4243 80.2909 81.3987 80.3071 81.3684 80.3071C81.9921 79.6625 82.6275 79.0551 83.2931 78.5384C83.7213 78.2056 84.1565 77.9077 84.5987 77.6308C84.6406 77.6052 84.6801 77.5703 84.722 77.5447C86.663 76.3531 88.7296 75.6991 90.8288 75.641C90.8335 75.641 90.8381 75.6386 90.8381 75.6386C90.9405 75.6363 91.0429 75.634 91.1453 75.634C95.2669 75.634 99.3885 77.924 102.782 82.1131C105.03 84.8849 108.26 90.1515 111.386 95.2436C112.733 97.4405 114.097 99.6561 115.416 101.737C115.025 101.443 114.565 101.236 114.036 101.236C112.752 101.236 111.709 102.279 111.709 103.564C111.709 104.848 112.752 105.891 114.036 105.891C115.321 105.891 116.364 104.848 116.364 103.564C116.364 103.387 116.301 103.233 116.264 103.068C117.725 105.332 119.101 107.343 120.315 108.886C119.894 108.474 119.324 108.218 118.691 108.218C117.406 108.218 116.364 109.261 116.364 110.545C116.364 111.83 117.406 112.873 118.691 112.873C119.976 112.873 121.018 111.83 121.018 110.545C121.018 109.95 120.778 109.421 120.411 109.009C120.471 109.086 120.539 109.179 120.599 109.251C122.34 111.404 123.248 113.445 123.315 115.207C122.045 115.226 121.018 116.254 121.018 117.527C121.018 118.104 121.251 118.614 121.598 119.021C119.377 121.018 115.172 122.182 109.726 122.182H67.463Z" fill="#973543"/>
<path d="M48.8727 59.8736C50.1574 59.8736 51.2 58.8334 51.2 57.5464V49.0332C51.2 48.6864 51.172 48.3443 51.1488 48.0046L51.8656 48.7214C52.3194 49.1752 52.9152 49.4033 53.511 49.4033C54.1067 49.4033 54.7025 49.1752 55.1563 48.7214L55.9104 47.9673C55.8824 48.3211 55.8545 48.6725 55.8545 49.0332V57.5464C55.8545 58.8334 56.8971 59.8736 58.1818 59.8736H66.695C74.8334 59.8736 81.4545 53.2526 81.4545 45.1164V36.6009C81.4545 35.3139 80.4119 34.2736 79.1272 34.2736H70.6141C68.6871 34.2736 66.8509 34.6553 65.1613 35.3302C66.1574 30.6082 64.8355 25.4882 61.1747 21.8274L55.154 15.8067C54.244 14.8968 52.7732 14.8968 51.8632 15.8067L45.8426 21.8297C42.1864 25.4859 40.8622 30.5989 41.8536 35.3163C40.1757 34.6507 38.3534 34.2736 36.4404 34.2736H27.9272C26.6426 34.2736 25.6 35.3139 25.6 36.6009V45.1164C25.6 53.2526 32.2211 59.8736 40.3595 59.8736H48.8727ZM76.8 38.9282V45.1164C76.8 50.6879 72.2664 55.2191 66.695 55.2191H60.5091V49.0332C60.5091 43.4594 65.0426 38.9282 70.6141 38.9282H76.8ZM49.1334 25.1205L53.5086 20.7452L57.8839 25.1205C61.8216 29.0582 61.8216 35.4699 57.8839 39.4099L53.5086 43.7852L49.1334 39.4099C45.1956 35.4699 45.1956 29.0582 49.1334 25.1205ZM30.2545 45.1187V38.9305H36.4404C42.0119 38.9305 46.5454 43.4617 46.5454 49.0355V55.2214H40.3595C34.788 55.2191 30.2545 50.6879 30.2545 45.1187Z" fill="#973543"/>
<path d="M74.4727 75.6364C74.4727 74.3494 73.4301 73.3091 72.1454 73.3091H37.2363C35.9517 73.3091 34.9091 74.3494 34.9091 75.6364C34.9091 76.9233 35.9517 77.9636 37.2363 77.9636H72.1454C73.4301 77.9636 74.4727 76.9233 74.4727 75.6364Z" fill="#973543"/>
<path d="M44.2181 66.3271C42.9335 66.3271 41.8909 67.3674 41.8909 68.6544C41.8909 69.9414 42.9335 70.9817 44.2181 70.9817H67.4909C68.7755 70.9817 69.8181 69.9414 69.8181 68.6544C69.8181 67.3674 68.7755 66.3271 67.4909 66.3271H44.2181Z" fill="#973543"/>
<path d="M69.8181 82.618C69.8181 81.3311 68.7755 80.2908 67.4909 80.2908H44.2181C42.9335 80.2908 41.8909 81.3311 41.8909 82.618C41.8909 83.905 42.9335 84.9453 44.2181 84.9453H67.4909C68.7755 84.9453 69.8181 83.905 69.8181 82.618Z" fill="#973543"/>
</g>
<defs>
<clipPath id="clip0_63_219">
<rect width="128" height="128" fill="white"/>
</clipPath>
</defs>
</svg>
