<svg width="128" height="128" viewBox="0 0 128 128" fill="none" xmlns="http://www.w3.org/2000/svg">
<g clip-path="url(#clip0_63_150)">
<path d="M127.986 68.7945L127.507 64.1948V59.5952C127.507 58.1879 127.084 57.0545 126.253 56.228C124.852 54.8373 122.902 54.842 121.03 54.8703H64.3459L15.2229 4.58791C12.5287 1.89375 8.61377 1.5372 6.09906 3.68356L5.49459 3.96927L5.20652 4.2597C2.60916 6.85942 2.6068 12.1533 5.18526 14.7318L44.3817 54.8727H7.08369H6.47922C4.59968 54.8727 2.65402 54.8373 1.25618 56.2304C0.42266 57.0545 0 58.1879 0 59.5952V64.3176C0 64.3955 0.0188899 64.4829 0.0212511 64.5608H0.0118062L0.0661145 65.0732C0.0897268 65.3448 0.101533 65.6116 0.151119 65.8949L0.495859 69.2101C0.602114 99.8329 29.1565 125.712 64.2444 125.712C99.3984 125.712 127.998 99.7361 127.998 69.0401L127.986 68.7945ZM121.065 59.5952C121.596 59.5952 122.34 59.581 122.784 59.6377V64.3176C122.784 66.2538 121.178 68.9362 120.423 69.0401H103.894V59.5952H120.423H121.065ZM83.8237 64.2185C79.2665 64.2185 75.5594 67.9043 75.5594 72.4332V78.2867C75.5594 80.2111 73.9703 81.7789 72.0176 81.7789C70.0648 81.7789 68.4757 80.2158 68.4757 78.289V59.5928H68.9574H99.1717V91.9488C99.1717 93.8732 97.5826 95.441 95.6299 95.441C93.6771 95.441 92.088 93.8755 92.088 91.9511V72.4355C92.088 67.9043 88.3809 64.2185 83.8237 64.2185ZM8.5453 11.4119C7.84873 10.7153 7.78498 8.76257 8.3564 7.83933L8.80975 7.62682L9.10019 7.33639C9.75661 6.68469 11.0695 7.11207 11.8628 7.90781L57.7392 54.8703H50.9813L8.5453 11.4119ZM6.44144 59.5928H48.9932H63.7533V69.0377H7.09078C6.44144 68.9504 5.18999 66.9953 4.82872 65.2196L4.72246 64.1948V59.6377C5.16874 59.581 5.9078 59.5857 6.44144 59.5928ZM64.2467 120.987C33.4043 120.987 8.02819 99.7833 5.44736 73.4532C5.96683 73.6421 6.50992 73.7602 7.08369 73.7602H63.7533V78.289C63.7533 82.8179 67.4604 86.5038 72.0176 86.5038C76.5747 86.5038 80.2819 82.8179 80.2819 78.289V72.4355C80.2819 70.5111 81.871 68.9433 83.8237 68.9433C85.7765 68.9433 87.3656 70.5111 87.3656 72.4355V91.9511C87.3656 96.48 91.0727 100.166 95.6299 100.166C100.187 100.166 103.894 96.48 103.894 91.9511V73.7626H120.423C121.396 73.7626 122.283 73.4391 123.091 72.9338C120.796 99.5023 95.2922 120.987 64.2467 120.987Z" fill="#973543"/>
<path d="M62.2657 112.081C49.4088 110.763 37.6475 105.689 29.1494 97.7905C28.1979 96.9074 26.7008 96.957 25.813 97.9133C24.9252 98.8673 24.9795 100.362 25.9358 101.25C35.1824 109.842 47.9118 115.358 61.784 116.78C61.8667 116.787 61.9469 116.791 62.0272 116.791C63.2244 116.791 64.2491 115.887 64.3743 114.671C64.5065 113.375 63.562 112.215 62.2657 112.081Z" fill="#973543"/>
<path d="M19.27 87.8686C18.4885 86.8249 17.0103 86.6077 15.9643 87.3916C14.9207 88.1732 14.7081 89.6537 15.4874 90.695C16.3232 91.8142 17.2654 92.846 18.2925 93.7693C18.7435 94.1754 19.3078 94.3761 19.8698 94.3761C20.5168 94.3761 21.159 94.114 21.6266 93.5946C22.4978 92.6241 22.4199 91.1318 21.4495 90.2605C20.6561 89.5427 19.9217 88.7375 19.27 87.8686Z" fill="#973543"/>
</g>
<defs>
<clipPath id="clip0_63_150">
<rect width="128" height="128" fill="white"/>
</clipPath>
</defs>
</svg>
