<svg width="128" height="128" viewBox="0 0 128 128" fill="none" xmlns="http://www.w3.org/2000/svg">
<g clip-path="url(#clip0_63_164)">
<path d="M70.5847 88.7085C71.7687 88.7085 72.7285 87.7487 72.7285 86.5647C72.7285 85.3807 71.7687 84.4209 70.5847 84.4209C69.4007 84.4209 68.4409 85.3807 68.4409 86.5647C68.4409 87.7487 69.4007 88.7085 70.5847 88.7085Z" fill="#973543"/>
<path d="M77.0161 99.4275C78.2001 99.4275 79.1599 98.4677 79.1599 97.2837C79.1599 96.0997 78.2001 95.1399 77.0161 95.1399C75.8321 95.1399 74.8723 96.0997 74.8723 97.2837C74.8723 98.4677 75.8321 99.4275 77.0161 99.4275Z" fill="#973543"/>
<path d="M74.8723 75.8455C76.0563 75.8455 77.0161 74.8857 77.0161 73.7017C77.0161 72.5177 76.0563 71.5579 74.8723 71.5579C73.6883 71.5579 72.7285 72.5177 72.7285 73.7017C72.7285 74.8857 73.6883 75.8455 74.8723 75.8455Z" fill="#973543"/>
<path d="M48.8423 91.4675L53.5415 87.077C54.7935 85.9086 55.516 84.3158 55.5717 82.5943C55.6296 80.875 55.0186 79.2393 53.8481 77.9873L49.4576 73.2881C47.0351 70.6941 42.9576 70.5612 40.3678 72.9794L35.6686 77.3699C33.0768 79.7902 32.9396 83.8677 35.3599 86.4596L39.7504 91.1588C41.0153 92.5137 42.7325 93.1954 44.4496 93.1954C46.0275 93.1976 47.6053 92.6252 48.8423 91.4675ZM42.8847 88.2325L38.4942 83.5333C37.6881 82.6693 37.7353 81.3102 38.5971 80.502L43.2963 76.1115C43.7079 75.7256 44.2353 75.5348 44.7605 75.5348C45.335 75.5348 45.9053 75.762 46.3276 76.2122L50.7181 80.9114C51.1062 81.3252 51.3077 81.8718 51.2905 82.4485C51.2691 83.0252 51.0311 83.5569 50.6174 83.9428L45.9182 88.3333C45.0499 89.1436 43.695 89.0965 42.8847 88.2325Z" fill="#973543"/>
<path d="M39.9476 65.8254C40.0205 65.8297 40.0955 65.8297 40.1706 65.8297C41.8084 65.8297 43.3562 65.223 44.5546 64.1018L49.2538 59.7113C51.8457 57.2909 51.9829 53.2134 49.5626 50.6216L45.172 45.9223C42.7517 43.3283 38.672 43.1954 36.0823 45.6136L31.3831 50.0041C28.7913 52.4245 28.654 56.502 31.0744 59.0939L35.4649 63.7931C36.6333 65.0472 38.2261 65.7697 39.9476 65.8254ZM34.3094 53.1362L39.0086 48.7457C39.4202 48.3598 39.9476 48.169 40.4728 48.169C41.0474 48.169 41.6176 48.3963 42.04 48.8465L46.4305 53.5457C47.2365 54.4097 47.1894 55.7688 46.3276 56.577L41.6283 60.9675C41.2146 61.3556 40.6679 61.5507 40.0912 61.5399C39.5146 61.5185 38.9829 61.2805 38.597 60.8668L34.2065 56.1676C33.4004 55.3036 33.4454 53.9445 34.3094 53.1362Z" fill="#973543"/>
<path d="M42.7153 106.058C43.8993 106.058 44.8591 105.098 44.8591 103.914C44.8591 102.73 43.8993 101.771 42.7153 101.771C41.5313 101.771 40.5715 102.73 40.5715 103.914C40.5715 105.098 41.5313 106.058 42.7153 106.058Z" fill="#973543"/>
<path d="M91.4696 36.3032C91.5597 34.0179 91.0473 31.7669 89.9475 29.6874C89.1822 28.2425 88.3225 26.8661 87.39 25.5563L89.7353 19.4336L85.7328 17.9008L84.2622 21.7425C77.4706 14.52 67.9371 10.2795 57.7219 10.2795C44.1881 10.2795 31.8398 17.7164 25.4963 29.6874C24.3965 31.7669 23.882 34.0179 23.9742 36.3032C23.4061 36.5347 22.8916 36.8884 22.4885 37.3708C21.7639 38.239 21.4616 39.3752 21.661 40.4643L35.1177 119.556C35.9966 124.45 40.2456 128 45.215 128H70.2288C75.1982 128 79.4472 124.45 80.3283 119.536L93.7807 40.4857C93.9822 39.3731 93.6799 38.239 92.9553 37.3708C92.5523 36.8884 92.0377 36.5347 91.4696 36.3032ZM86.1573 31.6918C86.8755 33.0489 87.2228 34.5152 87.1863 36.0052H83.3875L85.4863 30.5256C85.7135 30.9115 85.9472 31.2931 86.1573 31.6918ZM29.2844 31.6918C34.8797 21.1293 45.7766 14.5671 57.7219 14.5671C67.4548 14.5671 76.493 18.9276 82.5321 26.2573L78.7998 36.0052H28.2554C28.2189 34.5174 28.5662 33.051 29.2844 31.6918ZM76.105 118.797C75.5948 121.644 73.1208 123.712 70.2288 123.712H45.215C42.3208 123.712 39.849 121.644 39.341 118.816L25.9808 40.2928H77.1598L68.1386 63.8446C67.8621 62.9399 67.4033 62.0781 66.7152 61.3406L62.3247 56.6414C59.9022 54.0474 55.8225 53.9145 53.2349 56.3327L48.5357 60.7232C45.9439 63.1436 45.8067 67.2211 48.227 69.8129L52.6175 74.5121C53.7859 75.7641 55.3787 76.4866 57.1002 76.5423C57.1731 76.5466 57.2481 76.5466 57.3232 76.5466C58.961 76.5466 60.5089 75.9399 61.7072 74.8187L65.1759 71.5794L58.3843 89.3108C57.9792 89.701 48.4628 115.219 48.4628 115.219C48.0791 114.858 47.571 114.629 47.005 114.629C45.8217 114.629 44.8612 115.59 44.8612 116.773C44.8612 117.956 45.8217 118.917 47.005 118.917C47.1958 118.917 47.3695 118.855 47.5453 118.807L51.149 120.188L53.7173 113.482C53.9745 113.958 54.2704 114.419 54.6584 114.831L59.0489 119.53C60.2173 120.782 61.8101 121.504 63.5316 121.56C63.6045 121.564 63.6795 121.564 63.7546 121.564C65.3924 121.564 66.9403 120.958 68.1386 119.836L72.8379 115.446C75.4297 113.026 75.5669 108.948 73.1466 106.356L68.7561 101.657C66.3357 99.063 62.2561 98.9301 59.6663 101.348L57.6383 103.241C57.6383 103.241 68.3809 75.4833 68.3359 75.3118L81.7496 40.2885H89.4673L76.105 118.797ZM63.478 67.3004L58.7788 71.6909C58.3629 72.0789 57.8291 72.2654 57.2417 72.2633C56.665 72.2419 56.1334 72.0039 55.7475 71.5901L51.357 66.8866C50.5509 66.0227 50.5981 64.6635 51.4599 63.8553L56.1591 59.4648C56.5707 59.0789 57.0981 58.8881 57.6233 58.8881C58.1978 58.8881 58.7681 59.1154 59.1904 59.5656L63.5809 64.2648C64.387 65.133 64.342 66.4922 63.478 67.3004ZM57.8913 108.875L62.5905 104.485C63.0021 104.099 63.5295 103.908 64.0547 103.908C64.6292 103.908 65.1995 104.135 65.6218 104.585L70.0123 109.285C70.8184 110.149 70.7712 111.508 69.9094 112.316L65.2102 116.706C64.7943 117.094 64.2584 117.29 63.6731 117.279C63.0964 117.257 62.5648 117.019 62.1789 116.606L57.7884 111.906C56.9823 111.043 57.0273 109.683 57.8913 108.875Z" fill="#973543"/>
<path d="M89.2486 12.8607L93.5362 17.1483L90.5049 20.1796L86.2173 15.892L89.2486 12.8607ZM94.7946 15.8963L90.507 11.6087L93.5384 8.57735L97.826 12.865L94.7946 15.8963ZM99.0822 11.6087L94.7946 7.32109L97.826 4.28975L102.114 8.57735L99.0822 11.6087ZM99.0801 3.03134L102.111 0L106.399 4.2876L103.368 7.31894L99.0801 3.03134Z" fill="#973543"/>
</g>
<defs>
<clipPath id="clip0_63_164">
<rect width="128" height="128" fill="white"/>
</clipPath>
</defs>
</svg>
