<svg width="128" height="128" viewBox="0 0 128 128" fill="none" xmlns="http://www.w3.org/2000/svg">
<g clip-path="url(#clip0_63_143)">
<path d="M123.83 68.1091C119.468 60.667 112.69 56.2396 105.677 56.2396C105.633 56.2396 105.587 56.2396 105.543 56.2396C100.017 56.1527 96.2693 54.9635 94.273 52.3183C92.2766 49.673 92.3077 46.0994 92.5964 43.8205H102.643C107.679 43.8205 111.775 39.7254 111.775 34.6894V25.0088C111.775 19.9729 107.679 15.8777 102.643 15.8777H24.6611C19.6252 15.8777 15.53 19.9729 15.53 25.0088V34.6863C15.53 39.7223 19.6252 43.8174 24.6611 43.8174H35.4005C35.6861 46.0901 35.7172 49.6575 33.7456 52.2903C31.7493 54.9542 27.8062 56.2924 22.4567 56.2365C15.3406 56.1527 8.55982 60.6204 4.16659 68.1091C-1.06804 77.0415 -1.39715 87.7094 3.30967 95.9495C7.35828 103.038 16.8216 111.433 38.7505 112.06C39.1852 112.079 39.5764 112.122 40.0421 112.122H41.0605H83.6143H86.9457C110.551 112.051 120.499 103.286 124.687 95.9495C129.394 87.7126 129.065 77.0446 123.83 68.1091ZM24.6611 37.611C23.0466 37.611 21.7395 36.3008 21.7395 34.6894V25.0088C21.7395 23.3943 23.0497 22.0872 24.6611 22.0872H102.643C104.258 22.0872 105.565 23.3974 105.565 25.0088V34.6863C105.565 36.3008 104.255 37.6079 102.643 37.6079H94.2295H33.7736H24.6611V37.611ZM41.0729 105.916C40.1011 105.913 39.1852 105.879 38.2693 105.847C35.1521 105.621 32.9726 104.792 32.3268 103.528C31.6655 102.234 32.392 99.9174 34.2641 97.3342C36.9591 93.6147 40.4675 87.399 43.861 81.3882C47.1148 75.6257 50.4772 69.6677 52.8958 66.3145C56.0565 61.9399 60.0585 59.4654 64.163 59.3506C64.2623 59.3506 64.3617 59.3475 64.4642 59.3475C68.4972 59.3475 72.549 61.6139 75.9114 65.765C78.1996 68.5872 81.5217 73.9988 84.7351 79.2335C88.1193 84.7444 91.6184 90.4478 94.2761 93.7389C95.667 95.4651 97.8248 98.7469 96.5736 101.358C95.2292 104.171 90.2678 105.919 83.6205 105.919H41.0729V105.916ZM119.297 92.8727C116.907 97.0579 111.998 101.805 102.035 104.255C102.075 104.177 102.137 104.109 102.175 104.028C103.339 101.591 104.488 96.499 99.0978 89.83C96.6947 86.8556 93.3012 81.3292 90.0194 75.9797C86.5514 70.3321 83.2759 64.9919 80.7331 61.8499C76.166 56.2147 70.4067 53.1317 64.4673 53.1317C64.3089 53.1317 64.1475 53.1348 63.9891 53.1379C57.9069 53.3087 52.1755 56.696 47.863 62.6727C45.2395 66.3083 41.9422 72.1484 38.4525 78.33C35.1459 84.1918 31.7244 90.2522 29.2375 93.683C26.4929 97.4677 25.4404 101.144 26.1048 104.283C16.0516 101.842 11.1088 97.0703 8.70885 92.8696C4.39634 85.3188 6.30887 76.7496 9.53161 71.2449C12.7668 65.7277 17.545 62.4429 22.3294 62.4429C22.4474 62.4429 22.5933 62.4429 22.7269 62.4429C30.1472 62.4429 35.5247 60.282 38.7226 56.0098C41.7094 52.0202 41.9608 47.1644 41.6535 43.8143H86.3527C86.0453 47.1644 86.2968 52.0202 89.2836 56.0098C92.4815 60.282 97.8621 62.4429 105.279 62.4429C105.413 62.4429 105.556 62.446 105.677 62.4429C110.461 62.4429 115.239 65.7277 118.471 71.2449C121.697 76.7527 123.61 85.325 119.297 92.8727Z" fill="#973543"/>
<path d="M65.8986 74.8682C67.6133 74.8682 69.0033 73.4782 69.0033 71.7635C69.0033 70.0487 67.6133 68.6587 65.8986 68.6587C64.1839 68.6587 62.7938 70.0487 62.7938 71.7635C62.7938 73.4782 64.1839 74.8682 65.8986 74.8682Z" fill="#973543"/>
<path d="M56.5843 84.1824C58.299 84.1824 59.689 82.7924 59.689 81.0777C59.689 79.3629 58.299 77.9729 56.5843 77.9729C54.8695 77.9729 53.4795 79.3629 53.4795 81.0777C53.4795 82.7924 54.8695 84.1824 56.5843 84.1824Z" fill="#973543"/>
<path d="M72.1081 90.3919C73.8228 90.3919 75.2128 89.0018 75.2128 87.2871C75.2128 85.5724 73.8228 84.1824 72.1081 84.1824C70.3933 84.1824 69.0033 85.5724 69.0033 87.2871C69.0033 89.0018 70.3933 90.3919 72.1081 90.3919Z" fill="#973543"/>
</g>
<defs>
<clipPath id="clip0_63_143">
<rect width="128" height="128" fill="white"/>
</clipPath>
</defs>
</svg>
