<svg width="128" height="128" viewBox="0 0 128 128" fill="none" xmlns="http://www.w3.org/2000/svg">
<g clip-path="url(#clip0_63_250)">
<path d="M126.226 57.3166L115.022 27.0949C113.573 23.1931 109.826 20.5714 105.694 20.5714H92.5714C92.5714 9.22743 83.344 0 72 0C60.656 0 51.4285 9.22743 51.4285 20.5714V32C51.4285 40.8206 44.2491 48 35.4285 48C31.0102 48 27.0034 46.1989 24.1051 43.2914C29.1908 42.6194 33.1428 38.3017 33.1428 33.0354V14.9646C33.1428 9.23429 28.48 4.57143 22.7497 4.57143H11.536C5.80568 4.57143 1.14282 9.23429 1.14282 14.9646V33.0354C1.14282 38.7657 5.80568 43.4286 11.536 43.4286H18.336C22.0297 48.9371 28.3131 52.5714 35.4285 52.5714C46.7725 52.5714 56 43.344 56 32V20.5714C56 11.7509 63.1794 4.57143 72 4.57143C80.8205 4.57143 88 11.7509 88 20.5714H72.592C68.4594 20.5714 64.7131 23.1931 63.2662 27.0949L52.0617 57.3143C51.6411 58.4434 51.4308 59.6274 51.4308 60.8343V117.954C51.4308 123.493 55.8971 128 61.3874 128H116.901C122.391 128 126.857 123.493 126.857 117.954V60.8343C126.857 59.6274 126.645 58.4434 126.226 57.3166ZM11.536 38.8571C8.32682 38.8571 5.71425 36.2446 5.71425 33.0354V14.9646C5.71425 11.7554 8.32682 9.14286 11.536 9.14286H22.7497C25.9588 9.14286 28.5714 11.7554 28.5714 14.9646V33.0354C28.5714 36.2446 25.9588 38.8571 22.7497 38.8571H20.9943C20 36.7749 19.4285 34.4549 19.4285 32H14.8571C14.8571 34.4069 15.2937 36.7086 16.0571 38.8571H11.536ZM92.5714 37.2069C93.9314 38 94.8571 39.4583 94.8571 41.1429C94.8571 43.664 92.8068 45.7143 90.2857 45.7143C87.7645 45.7143 85.7142 43.664 85.7142 41.1429C85.7142 39.4583 86.64 38 88 37.2069V41.1429H92.5714V37.2069ZM116.901 123.429H61.3851C58.4137 123.429 56 120.974 56 117.954V106.089L58.9554 109.045L62.1874 105.813L56 99.6251V83.232L58.9554 86.1874L62.1874 82.9554L56 76.768V60.8343C56 60.1737 56.1165 59.5246 56.3451 58.9051L67.5497 28.6834C68.336 26.5646 70.3611 25.1406 72.5897 25.1406H88V32.3223C84.0685 33.344 81.1428 36.8914 81.1428 41.1406C81.1428 46.1829 85.2434 50.2834 90.2857 50.2834C95.328 50.2834 99.4285 46.1829 99.4285 41.1406C99.4285 36.8914 96.5028 33.344 92.5714 32.3223V25.1429H105.694C107.922 25.1429 109.947 26.5669 110.734 28.6857L121.938 58.9097C122.169 59.5269 122.283 60.176 122.283 60.8366V79.056L119.998 76.7703L113.81 82.9577L117.042 86.1897L119.998 83.2343L122.283 85.52V101.913L119.998 99.6274L113.81 105.815L117.042 109.047L119.998 106.091L122.283 108.377V117.957C122.286 120.974 119.87 123.429 116.901 123.429Z" fill="#973543"/>
<path d="M58.9554 117.241L62.1874 120.473L65.1429 117.518L68.0983 120.473L71.3303 117.241L65.1429 111.054L58.9554 117.241Z" fill="#973543"/>
<path d="M74.9554 117.241L78.1874 120.473L81.1429 117.518L84.0983 120.473L87.3303 117.241L81.1429 111.054L74.9554 117.241Z" fill="#973543"/>
<path d="M90.9554 117.241L94.1874 120.473L97.1429 117.518L100.098 120.473L103.33 117.241L97.1429 111.054L90.9554 117.241Z" fill="#973543"/>
<path d="M106.955 117.241L110.187 120.473L113.143 117.518L116.098 120.473L119.33 117.241L113.143 111.054L106.955 117.241Z" fill="#973543"/>
<path d="M65.1429 94.6605L68.0983 97.616L71.3303 94.384L65.1429 88.1965L58.9554 94.384L62.1874 97.616L65.1429 94.6605Z" fill="#973543"/>
<path d="M78.1874 97.616L81.1429 94.6605L84.0983 97.616L87.3303 94.384L81.1429 88.1965L74.9554 94.384L78.1874 97.616Z" fill="#973543"/>
<path d="M94.1874 97.616L97.1429 94.6605L100.098 97.616L103.33 94.384L97.1429 88.1965L90.9554 94.384L94.1874 97.616Z" fill="#973543"/>
<path d="M110.187 97.616L113.143 94.6605L116.098 97.616L119.33 94.384L113.143 88.1965L106.955 94.384L110.187 97.616Z" fill="#973543"/>
<path d="M78.1874 105.813L71.9999 99.6252L65.8125 105.813L69.0445 109.045L71.9999 106.089L74.9554 109.045L78.1874 105.813Z" fill="#973543"/>
<path d="M94.1874 105.813L87.9999 99.6252L81.8125 105.813L85.0445 109.045L87.9999 106.089L90.9554 109.045L94.1874 105.813Z" fill="#973543"/>
<path d="M110.187 105.813L104 99.6252L97.8125 105.813L101.045 109.045L104 106.089L106.955 109.045L110.187 105.813Z" fill="#973543"/>
<path d="M71.9999 83.2321L74.9554 86.1875L78.1874 82.9555L71.9999 76.7681L65.8125 82.9555L69.0445 86.1875L71.9999 83.2321Z" fill="#973543"/>
<path d="M87.9999 83.2321L90.9554 86.1875L94.1874 82.9555L87.9999 76.7681L81.8125 82.9555L85.0445 86.1875L87.9999 83.2321Z" fill="#973543"/>
<path d="M104 83.2321L106.955 86.1875L110.187 82.9555L104 76.7681L97.8125 82.9555L101.045 86.1875L104 83.2321Z" fill="#973543"/>
</g>
<defs>
<clipPath id="clip0_63_250">
<rect width="128" height="128" fill="white"/>
</clipPath>
</defs>
</svg>
