<svg xmlns="http://www.w3.org/2000/svg" xmlns:xlink="http://www.w3.org/1999/xlink" viewBox="0 0 109.11 41.96"><defs><symbol id="A" viewBox="0 0 737.01 283.46"><path d="M556.84 0H737v283.46H556.84z" fill="#23aa4a"/><path d="M414.9 0h121.33v283.46H414.9z" fill="#cf1e29"/><path d="M238.26 0H414.9v283.46H238.26z" fill="#f7941d"/><path d="M0 0h208.07v283.46H0z" fill="#ee3124"/><path d="M208.07 0h30.2v283.46h-30.2z" fill="#1a1817"/><path d="M536.23 0h20.6v283.46h-20.6z" fill="#047bc1"/><path d="M391.7 208.45c-20.6 0-33.4-12-33.4-31.3 0-20 13.77-31.88 36.84-31.88A61.9 61.9 0 0 1 412.9 148l.38.12v-1.7c0-6.53-.9-9.88-3.5-12.8-2.8-3.17-7.86-4.77-15-4.77a61.61 61.61 0 0 0-27.43 6.81l-.83.42v-18.5l.34-.15c8.7-4 20-6.16 31.93-6.16 14.93 0 25.6 3.24 32.65 9.9 5.73 5.34 8.4 13 8.4 24.1v39.52c0 3.67 1.1 5.16 3.82 5.16a15.28 15.28 0 0 0 7.11-2.37l1-.73-1 16-.2.15c-4.3 3-10.94 4.88-17.32 4.88-7.95 0-13.94-3.2-16.44-8.76l-.18-.4-.3.32c-5.33 5.9-14.52 9.4-24.64 9.4zm9-47.54c-10 0-15.67 5.5-15.67 15.1s5.08 14.9 13.94 14.9a14.48 14.48 0 0 0 10.67-4.21c2.4-2.6 3.67-6.48 3.67-11.27V163l-.2-.07a41.11 41.11 0 0 0-12.44-2.02zm-178.74 47c-7.83 0-13.45-2.26-16.7-6.72-2.36-3.28-3.56-8.4-3.56-15.23v-36.3c0-5.9-.2-9.74-2.76-13.23-2.4-3.13-6.47-4.92-11.2-4.92a14.94 14.94 0 0 0-12 5.51c-2.63 3.5-3.7 8-3.7 15.7v54h-26.5v-57.05c0-5.9-.2-9.74-2.76-13.23-2.4-3.13-6.47-4.92-11.18-4.92a14.92 14.92 0 0 0-12 5.51c-2.63 3.5-3.7 8-3.7 15.7v54H89.4v-74.63H78.33V113h27.1l4.34 11.2.3-.4c6.13-8 16.6-12.54 28.76-12.54 12.8 0 22.1 4 27.7 11.9l.2.3.23-.28c3.78-4.45 12.43-11.93 28-11.93 12.6 0 22.45 4.22 27.76 11.9 3.8 5.42 5.44 12.2 5.44 22.66v39c0 4.55 2.05 5.16 4.05 5.16a14.5 14.5 0 0 0 6.91-2.36l1-.73-.84 16-.32.1a31.63 31.63 0 0 1-17.07 4.91zm420.47 0c-10.13 0-16.36-3.88-22.25-13.83l-17-28.56H595v41.25h-26.48V94.1h-11.07V75H595v70.65h9.23L623.17 113h26.5l-24.38 41.8 18.15 30.07c2.3 3.84 4 5.07 7.16 5.07a12.74 12.74 0 0 0 7.11-2.37l1-.7-.84 16.52-.2.16c-3.52 2.68-9.36 4.33-15.27 4.33zm-119.7-1.14v-57.1c0-5.8-.5-9.82-3-13.23-2.46-3.22-6.46-4.92-11.57-4.92-5.3 0-9.64 2-12.54 5.7-3.07 4-3.7 9.27-3.7 15.88v53.65h-26.5v-74.66h-11.08V113h27.1l4.37 11.26.3-.37c6.65-8.13 17-12.6 29.13-12.6 11.08 0 20 3.16 25.8 9.15 5.64 6 8.16 13.8 8.16 25.2v61.1zm-269.18 0V104.6h-11.67V84.75h55.17c17.3 0 27.2 2.53 34.17 8.73 6.12 5.5 9.35 13.2 9.35 22.2 0 11-5.16 20.1-14.14 24.92l-.6.32.67.2c14 4.15 21.33 14.43 21.33 29.75 0 14.7-5.65 24.65-17.3 30.48-7.3 3.74-17.2 5.4-32.13 5.4zm27.66-20h14.72c16.56 0 22.72-4.66 22.72-17.2 0-5.86-1.43-10-4.38-12.55-3.77-3.2-8.85-4.45-18.16-4.45h-14.9zm0-51h12c8.06 0 12.6-1.18 15.65-4 2.65-2.47 3.83-6.18 3.83-12 0-3.43-.73-8.16-4.2-11.22-2.92-2.75-7.58-3.87-16.05-3.87H281.2z" fill="#fff"/></symbol></defs><use width="737.01" height="283.46" transform="matrix(.15 0 0 .15 0 0)" xlink:href="#A"/></svg>