<svg width="150" height="150" viewBox="0 0 150 150" fill="none" xmlns="http://www.w3.org/2000/svg">
<rect width="150" height="150" fill="#F9F7F0"/>
<path fill-rule="evenodd" clip-rule="evenodd" d="M45.6538 38H103.346C108.125 38 112 41.8744 112 46.6538V104.346C112 109.125 108.125 113 103.346 113H45.6538C40.8744 113 37 109.125 37 104.346V46.6538C37 41.8744 40.8744 38 45.6538 38ZM45.6538 43.7692C44.0607 43.7692 42.7692 45.0607 42.7692 46.6538V80.4823L52.4719 70.7796C52.9697 70.2818 53.6484 70.0075 54.3523 70.0196C55.0563 70.0317 55.7251 70.3292 56.2055 70.8438L76.6551 92.7506L92.8565 76.5488C93.8702 75.535 95.5144 75.535 96.5281 76.5488L106.231 86.2515V46.6538C106.231 45.0607 104.939 43.7692 103.346 43.7692H45.6538ZM42.7692 104.346V87.8254L54.2435 76.3511L74.6794 98.2429L82.8142 107.231H45.6538C44.0607 107.231 42.7692 105.939 42.7692 104.346ZM103.346 107.231H89.8173L80.1732 96.575L94.6923 82.0562L106.231 93.5946V104.346C106.231 105.939 104.939 107.231 103.346 107.231ZM69.5917 63.9615C69.5917 61.2508 71.7892 59.0532 74.5 59.0532C77.2108 59.0532 79.4083 61.2508 79.4083 63.9615C79.4083 66.6723 77.2108 68.8699 74.5 68.8699C71.7892 68.8699 69.5917 66.6723 69.5917 63.9615ZM74.5 53.8609C68.9216 53.8609 64.3993 58.3831 64.3993 63.9615C64.3993 69.54 68.9216 74.0622 74.5 74.0622C80.0784 74.0622 84.6007 69.54 84.6007 63.9615C84.6007 58.3831 80.0784 53.8609 74.5 53.8609Z" fill="#973543"/>
</svg>
