<?xml version="1.0" encoding="UTF-8"?><svg id="a" xmlns="http://www.w3.org/2000/svg" viewBox="0 0 175.51 73"><defs><style>.b{fill:#19345b;}.c{fill:#e21f26;}</style></defs><g><path class="c" d="M78.07,4.39l.43-.2L87.73,.27c.75-.22,1.54-.31,2.32-.25,1.44,0,2.08,.63,1.8,2.05-.26,1.21-.68,2.38-1.26,3.48l-2.77,4.89c-1.88,3.56-2.47,7.66-1.65,11.6,1.26,5.69,6.09,8.82,12.15,8.19,7.77-.86,13.57-4.94,18.36-10.81,.93-1.13,1.76-2.39,2.62-3.6,.5-.67,1.2-1.16,1.86-.58,.42,.51,.56,1.2,.37,1.84-4.81,9.05-11.01,16.67-21.42,19.57-6.3,1.76-12.41,.63-18.18-2.27-2.8-1.39-5.49-2.97-8.29-4.37-3.68-1.93-7.74-3.01-11.89-3.15-1.76,0-3.5,.25-5.25,.31-1.13,0-2.42,.13-3.05-1.03-.42-1.08-.1-2.31,.78-3.06,1.89-2.22,3.91-4.33,5.85-6.49l.38,.25c-.08,.42-.16,.84-.25,1.26-.57,2.01,.59,4.1,2.6,4.67,.04,.01,.07,.02,.11,.03,1.92,.61,3.98,.61,5.9,0,5.48-1.31,10.35-4.48,13.77-8.96,.61-.81,1.11-1.7,1.49-2.65,1.45-3.5-.25-6.17-4.03-6.46h-1.7l-.25-.34Z"/><path class="c" d="M103.9,11.39c4.13,0,6.3,3.33,4.66,7.13-1.67,3.53-5.43,5.57-9.3,5.04-2.54-.36-4.3-2.7-3.95-5.24,.05-.39,.16-.77,.31-1.13,1.31-3.45,4.59-5.75,8.28-5.81Z"/><path class="b" d="M74.67,10.1c2.52,0,3.4,1.35,2.34,3.09-1.56,2.74-4.41,4.49-7.56,4.62-2.05,.13-2.9-1.26-1.85-3.06,1.48-2.59,4.1-4.32,7.07-4.65Z"/></g><g><path class="c" d="M15.04,47.9c-.35-.88-.91-1.65-1.63-2.26-.79-.66-1.7-1.16-2.69-1.45-1.24-.36-2.53-.53-3.83-.5H0v23.23H3.13v-8.66h3.78c1.28,0,2.56-.2,3.78-.6,.99-.33,1.91-.84,2.7-1.51,.71-.64,1.26-1.43,1.63-2.31,.38-.94,.57-1.95,.55-2.96,.02-1.01-.16-2.02-.52-2.96Zm-2.98,4.92c-.23,.59-.59,1.11-1.06,1.53-.5,.44-1.09,.78-1.73,.99-.77,.25-1.57,.38-2.38,.36H3.13v-9.54h3.78c1.49-.12,2.97,.32,4.15,1.24,.94,.9,1.44,2.17,1.37,3.47,0,.67-.12,1.33-.36,1.95Z"/><path class="c" d="M31.62,54.46c-.36-1.05-.95-2-1.71-2.81-.72-.75-1.61-1.34-2.58-1.71-1.09-.44-2.25-.66-3.42-.63-1.17-.02-2.34,.19-3.42,.63-.98,.38-1.87,.96-2.6,1.71-.75,.81-1.34,1.77-1.71,2.81-.75,2.38-.75,4.94,0,7.33,.38,1.04,.96,1.98,1.71,2.79,.73,.75,1.62,1.34,2.6,1.71,1.09,.43,2.25,.63,3.42,.62,1.17,.02,2.33-.19,3.42-.62,.98-.37,1.86-.96,2.58-1.71,.76-.8,1.35-1.75,1.71-2.79,.78-2.38,.78-4.95,0-7.33Zm-3.92,8.54c-.9,1.17-2.33,1.82-3.8,1.71v-.1c-1.49,.11-2.94-.53-3.85-1.71-.9-1.38-1.34-3-1.27-4.64-.01-.93,.09-1.85,.31-2.76,.18-.74,.51-1.43,.96-2.04,.42-.55,.96-1,1.59-1.28,.71-.31,1.48-.46,2.26-.45,1.47-.1,2.9,.54,3.8,1.71,.92,1.42,1.37,3.1,1.27,4.79,.1,1.68-.35,3.35-1.27,4.76Z"/><path class="c" d="M47.15,52.78c-.07,.11-.16,.21-.26,.29-.11,.07-.24,.11-.38,.1-.21-.01-.41-.09-.56-.22l-.75-.46c-.35-.19-.73-.35-1.11-.46-.52-.16-1.06-.24-1.61-.22-.77-.02-1.54,.14-2.24,.46-.67,.28-1.26,.73-1.71,1.3-.45,.62-.78,1.31-.98,2.05-.24,.88-.35,1.79-.34,2.7-.01,.94,.11,1.87,.36,2.77,.25,.75,.64,1.45,1.15,2.05,.43,.54,.97,.97,1.59,1.27,.65,.3,1.36,.44,2.07,.43,.62,.02,1.24-.07,1.83-.26,.42-.15,.81-.36,1.18-.6,.27-.18,.52-.37,.77-.58,.18-.15,.4-.24,.63-.26,.23-.02,.45,.1,.56,.29l.86,1.1c-.37,.45-.8,.85-1.27,1.2-.98,.67-2.1,1.11-3.27,1.3-.61,.1-1.22,.15-1.83,.15-1.07,.02-2.14-.18-3.13-.6-.91-.39-1.73-.97-2.4-1.71-.71-.81-1.25-1.76-1.59-2.79-.41-1.21-.61-2.48-.58-3.75-.01-1.21,.17-2.41,.53-3.56,.33-1.03,.86-1.98,1.56-2.81,.7-.79,1.56-1.43,2.53-1.85,2.17-.89,4.6-.92,6.8-.09,.92,.41,1.75,.99,2.45,1.71l-.86,1.03Z"/><path class="c" d="M63.27,51.24c0,.21-.03,.41-.1,.6-.06,.19-.16,.37-.29,.52l-9.17,12.18h9.24v2.32h-12.74v-1.23c0-.18,.04-.35,.1-.52,.07-.2,.18-.38,.3-.55l9.21-12.27h-9.07v-2.35h12.52v1.29Z"/><path class="c" d="M71.18,67.37c-1.16,.07-2.29-.34-3.13-1.13-.78-.91-1.18-2.09-1.1-3.29v-10.56h-2.05c-.17,0-.33-.05-.46-.15-.13-.14-.2-.32-.19-.51v-1.2l2.82-.34,.68-5.31c.05-.34,.34-.59,.68-.58h1.54v5.94h4.96v2.16h-4.96v10.27c-.05,.58,.14,1.16,.51,1.61,.36,.36,.86,.55,1.37,.53,.28,0,.56-.03,.82-.12,.21-.08,.41-.17,.6-.29l.45-.27c.09-.08,.19-.12,.31-.14,.18,.02,.35,.13,.43,.29l.89,1.46c-.55,.5-1.2,.89-1.9,1.15-.72,.3-1.5,.46-2.28,.48v.02Z"/><path class="c" d="M91.73,54.39c-.37-1.04-.95-2-1.71-2.81-.73-.75-1.61-1.34-2.59-1.71-1.09-.44-2.25-.66-3.42-.63-1.17-.02-2.34,.19-3.42,.63-.98,.38-1.87,.96-2.6,1.71-.76,.81-1.34,1.76-1.71,2.81-.78,2.38-.78,4.95,0,7.33,.37,1.04,.95,1.99,1.71,2.79,.73,.75,1.62,1.34,2.6,1.71,2.21,.83,4.64,.83,6.85,0,.98-.38,1.86-.96,2.59-1.71,.76-.8,1.34-1.75,1.71-2.79,.78-2.38,.78-4.95,0-7.33Zm-3.92,8.54c-.9,1.17-2.33,1.82-3.8,1.71v-.1c-1.47,.14-2.91-.46-3.85-1.59-.92-1.41-1.37-3.08-1.27-4.76-.01-.93,.09-1.85,.31-2.76,.18-.74,.51-1.43,.96-2.04,.42-.55,.96-1,1.59-1.28,.71-.31,1.48-.46,2.26-.45,1.47-.1,2.9,.54,3.8,1.71,.92,1.42,1.37,3.1,1.27,4.79,.1,1.68-.35,3.35-1.27,4.76Z"/><path class="c" d="M118.83,49.63l-5.58,17.22h-2.4c-.29,0-.51-.17-.62-.58l-3.8-11.68c-.09-.26-.16-.52-.22-.79,0-.27-.12-.51-.17-.79,0,.26-.1,.51-.17,.79-.05,.27-.13,.54-.22,.8l-3.87,11.64c-.04,.34-.34,.59-.68,.58h-2.28l-5.58-17.22h2.4c.22,0,.44,.06,.62,.19,.15,.11,.27,.27,.33,.45l3.3,11.08,.45,2.31,.68-2.31,3.63-11.13c.05-.17,.15-.32,.29-.43,.14-.12,.33-.18,.51-.17h1.34c.2,0,.4,.05,.56,.17,.14,.12,.24,.26,.31,.43l3.54,11.13,.34,1.2,.29,1.13c0-.37,.07-.74,.21-1.13,0-.38,.17-.77,.29-1.2l3.42-11.08c.06-.18,.17-.34,.33-.45,.16-.13,.36-.19,.56-.19l2.19,.02Z"/><path class="c" d="M135.98,49.99l-9.59,22.26c-.09,.21-.22,.39-.38,.55-.2,.15-.45,.22-.7,.21h-2.26l3.15-6.85-7.16-16.21h2.62c.22-.01,.44,.06,.62,.21,.14,.11,.25,.26,.33,.43l4.62,10.84,.46,1.51,.51-1.51,4.49-10.84c.05-.19,.17-.35,.34-.45,.16-.12,.35-.19,.55-.19l2.4,.05Z"/><path class="b" d="M155.31,64.64c.28-.01,.55,.08,.75,.27,.19,.19,.28,.45,.27,.72v1.8h-15.78v-1.03c0-.22,.04-.44,.12-.65,.09-.23,.23-.43,.41-.6l7.6-7.64,1.71-1.83c.49-.53,.93-1.11,1.32-1.71,.35-.57,.63-1.18,.84-1.81,.21-.63,.31-1.29,.31-1.95,.01-.63-.11-1.25-.34-1.83-.19-.49-.5-.93-.89-1.28-.39-.35-.85-.61-1.35-.77-1.09-.34-2.25-.34-3.34,0-.49,.17-.95,.41-1.35,.74-.39,.31-.72,.69-.98,1.11-.26,.44-.45,.92-.56,1.42-.07,.32-.26,.59-.53,.77-.32,.15-.68,.17-1.01,.07l-1.54-.26c.13-1,.43-1.97,.89-2.86,.42-.81,1.01-1.53,1.71-2.11,.69-.56,1.47-.99,2.31-1.27,.91-.3,1.87-.45,2.82-.45,.95,0,1.9,.14,2.81,.45,.84,.28,1.61,.72,2.28,1.3,.64,.58,1.15,1.28,1.51,2.07,.37,.88,.55,1.82,.53,2.77,.01,.84-.12,1.67-.39,2.47-.26,.76-.62,1.48-1.08,2.14-.46,.71-.98,1.38-1.56,2l-1.88,1.97-6.25,6.39c.44-.12,.89-.22,1.34-.29,.43-.07,.87-.1,1.3-.1l8.01-.02Z"/><path class="b" d="M171.93,58.91v-15.15h-2.74l-11.5,15.29,.29,1.51c.05,.19,.16,.35,.31,.48,.16,.13,.36,.19,.56,.19h10.51v6.25h2.57v-6.23h2.94c.18,.01,.35-.06,.48-.19,.1-.12,.16-.28,.15-.45v-1.71l-3.58,.02Zm-2.59-10.73v10.72l-8.46,.02,8.56-11.76c-.1,.34-.1,.68-.1,1.03Z"/></g></svg>