<svg width="100" height="100" viewBox="0 0 100 100" fill="none" xmlns="http://www.w3.org/2000/svg">
<g clip-path="url(#clip0_19_68)">
<path d="M99.191 1.97027C98.3131 1.32857 97.0809 1.52148 96.4411 2.40134L77.9855 27.7187C77.2434 27.0672 76.2789 26.7916 75.3459 26.9334C75.3184 26.2149 75.0507 25.526 74.5842 24.9689L82.3888 2.75369C82.749 1.72816 82.2097 0.604206 81.1842 0.24596C80.1586 -0.122129 79.0347 0.425083 78.6745 1.45061L71.0017 23.2879C70.734 22.5773 70.2262 21.9612 69.5215 21.5754C68.618 21.0794 67.5688 21.042 66.6634 21.4278C66.3839 20.4849 65.687 19.6995 64.7284 19.3196C63.7679 18.9456 62.7246 19.0362 61.8743 19.5303C61.4786 18.6307 60.6893 17.9378 59.6894 17.6839C58.6934 17.426 57.6659 17.6524 56.8844 18.2508C56.3805 17.4064 55.5085 16.8198 54.485 16.6918C53.4555 16.5501 52.4733 16.9143 51.7765 17.6052C50.562 16.0561 47.8397 16.0561 46.6252 17.6052C45.9264 16.9123 44.9383 16.556 43.9127 16.6918C42.8892 16.8198 42.0211 17.4064 41.5153 18.2508C40.7358 17.6524 39.7142 17.4221 38.7103 17.6839C37.7104 17.9398 36.921 18.6307 36.5254 19.5303C35.677 19.0342 34.6338 18.9397 33.6712 19.3196C33.2402 19.4909 32.8878 19.7645 32.5768 20.0755C30.199 17.4556 27.0299 14.6801 23.7092 13.5956L21.9928 13.0306L21.2901 14.7018C21.1346 15.0719 18.4635 21.6128 20.1464 28.0101C19.9968 28.1754 19.8531 28.3467 19.739 28.5435C19.3965 29.1301 19.2508 29.7993 19.3099 30.4607C18.3591 30.502 17.3651 30.8564 16.7077 31.6516C16.0502 32.4448 15.8179 33.4704 16.0286 34.429C15.0503 34.5274 14.1468 35.0628 13.5956 35.9368C13.0406 36.8068 12.9382 37.85 13.2669 38.7771C12.3083 38.9956 11.4796 39.6413 11.0407 40.5763C10.6017 41.5093 10.6312 42.5584 11.0741 43.4363C10.5683 43.6213 10.1136 43.9304 9.75531 44.3437C9.64508 44.4717 9.55848 44.6134 9.4699 44.7551H4.67294C3.38955 44.7551 2.14946 45.2945 1.2696 46.2354C0.381853 47.1841 -0.0767814 48.4734 0.00982766 49.7726C1.17511 66.99 12.1272 75.6352 28.2149 83.3159C30.01 84.1741 31.4942 85.6012 32.3918 87.3353C33.2697 89.0321 33.1299 91.2209 32.0099 93.083C31.1655 94.4845 31.1418 96.1694 31.9469 97.5945C32.752 99.0216 34.2086 99.87 35.8443 99.87H62.3939C64.0297 99.87 65.4882 99.0197 66.2913 97.5945C67.0964 96.1694 67.0728 94.4845 66.2087 93.0476C65.1083 91.2189 64.9706 89.0321 65.8465 87.3373C66.7441 85.6012 68.2263 84.1741 70.0234 83.3159C86.1091 75.6352 97.0612 66.99 98.2265 49.7726C98.3131 48.4734 97.8564 47.1861 96.9667 46.2354C96.0888 45.2945 94.8467 44.7551 93.5634 44.7551H88.9376C88.8491 44.6134 88.7625 44.4717 88.6522 44.3437C88.294 43.9304 87.8393 43.6213 87.3334 43.4363C87.7743 42.5584 87.8038 41.5093 87.3649 40.5763C86.9259 39.6413 86.0973 38.9956 85.1386 38.7771C85.4674 37.85 85.365 36.8068 84.8119 35.9368C84.2588 35.0648 83.3573 34.5274 82.379 34.429C82.5876 33.4704 82.3573 32.4448 81.6999 31.6516C81.3948 31.2815 81.009 31.0138 80.5936 30.8209L99.6181 4.7201C100.264 3.8422 100.069 2.61196 99.191 1.97027ZM24.2938 18.1504C27.0397 19.7173 29.7325 22.6088 31.4784 24.8685C31.7639 25.2366 32.0316 25.6027 32.2756 25.9452C32.2874 25.9629 32.3032 25.9826 32.315 26.0003C32.5709 26.3645 32.7953 26.7031 32.9685 26.9885C33.6004 28.0278 33.6712 29.0238 33.4311 29.884C33.1909 30.7422 32.6398 31.4666 32.0257 31.9646C30.7738 32.9842 28.6636 33.5688 26.8212 31.8465L26.7445 31.7736L26.6677 31.6988C26.6618 31.6929 26.6579 31.687 26.652 31.6811C26.154 31.1969 25.7189 30.6733 25.343 30.1064C25.3272 30.0828 25.3115 30.0592 25.2957 30.0336C24.9296 29.4726 24.6225 28.8683 24.3667 28.2128C22.9514 24.5949 23.6561 20.4987 24.2938 18.1504ZM94.0928 48.9222C94.1775 49.0147 94.3192 49.2116 94.2995 49.5068C93.2583 64.8701 83.5895 72.474 68.3267 79.7629C65.7618 80.9873 63.6399 83.0344 62.3487 85.5283C60.8468 88.4297 61.0338 92.089 62.8565 95.1124C62.9904 95.3348 62.9352 95.5336 62.8624 95.6576C62.7896 95.7817 62.6518 95.9332 62.392 95.9332H35.8443C35.5845 95.9332 35.4447 95.7836 35.3739 95.6576C35.303 95.5317 35.2459 95.3348 35.4014 95.077C37.2025 92.087 37.3895 88.4278 35.8876 85.5244C34.5983 83.0324 32.4744 80.9853 29.9116 79.7609C14.6468 72.474 4.97804 64.8701 3.93676 49.5068C3.91708 49.2135 4.0588 49.0147 4.14344 48.9222C4.24186 48.8159 4.41311 48.6919 4.67097 48.6919H9.2396H89.1679H93.5653C93.8232 48.6919 93.9944 48.8159 94.0928 48.9222ZM78.1391 34.5983C77.9855 35.4545 78.1804 36.3521 78.7197 37.0922C79.2571 37.8343 80.0484 38.2949 80.9106 38.415C80.6527 39.2437 80.7334 40.157 81.1743 40.9601C81.6152 41.7612 82.3435 42.3202 83.184 42.5486C82.8711 43.2316 82.8041 44.0091 83.0089 44.7571H15.4026C15.6073 44.0091 15.5404 43.2316 15.2294 42.5486C16.0679 42.3222 16.7962 41.7652 17.2372 40.9601C17.6781 40.159 17.7607 39.2456 17.5009 38.415C18.3611 38.2949 19.1544 37.8343 19.6917 37.0922C20.2311 36.3521 20.4259 35.4545 20.2724 34.5983C21.1424 34.5864 21.9869 34.2282 22.6128 33.5609C22.6857 33.4822 22.7545 33.4015 22.8175 33.3188C23.164 33.7479 23.538 34.1554 23.9356 34.5412L24.0812 34.677L24.158 34.7498C24.2663 34.8502 24.3883 34.9211 24.5005 35.0156C24.7721 35.2439 25.0418 35.4742 25.3312 35.6612C25.5044 35.7734 25.6914 35.8482 25.8705 35.9446C26.1146 36.0765 26.3547 36.2182 26.6086 36.3226C26.8055 36.4033 27.0082 36.4466 27.209 36.5096C27.457 36.5863 27.7031 36.6749 27.955 36.7281C28.1617 36.7694 28.3704 36.7773 28.579 36.8009C28.8329 36.8304 29.0849 36.8698 29.3408 36.8737C29.3742 36.8737 29.4077 36.8836 29.4412 36.8836C29.6695 36.8836 29.8998 36.8442 30.1281 36.8225C30.3132 36.8048 30.4982 36.8048 30.6832 36.7733C30.9588 36.7281 31.2285 36.6454 31.5001 36.5686C31.6713 36.5214 31.8426 36.4919 32.0119 36.4328C32.3209 36.3226 32.6221 36.173 32.9232 36.0234C33.0453 35.9624 33.1732 35.921 33.2933 35.8521C33.7126 35.6159 34.12 35.3423 34.5098 35.0254C35.9723 33.8365 36.8915 32.2952 37.2714 30.6497C37.7064 28.7699 37.4308 26.7542 36.3345 24.9512C36.3305 24.9433 36.3226 24.9335 36.3187 24.9256C36.1317 24.6205 35.8778 24.2347 35.5688 23.7918C35.5412 23.7524 35.5235 23.721 35.4959 23.6816C36.238 24.0418 37.1021 24.1107 37.9328 23.843C38.8028 23.5595 39.4878 22.9493 39.8677 22.1659C40.5744 22.6679 41.468 22.8745 42.3695 22.7013C43.2691 22.5301 44.0249 22.0085 44.4993 21.2802C45.141 21.8687 46.0071 22.2033 46.9145 22.1266C47.8298 22.0695 48.6448 21.6482 49.2077 20.9849C49.7687 21.6482 50.5836 22.0695 51.4969 22.1266C52.4083 22.1817 53.2724 21.8687 53.9161 21.2802C54.3905 22.0085 55.1463 22.5301 56.0459 22.7013C56.9435 22.8726 57.8391 22.6659 58.5477 22.1659C58.9256 22.9474 59.6106 23.5576 60.4807 23.841C61.3487 24.1264 62.264 24.0339 63.0317 23.6245C63.3112 24.4493 63.9135 25.1421 64.7422 25.5319C65.5689 25.9177 66.4862 25.9413 67.2992 25.6342C67.4724 26.4865 67.9842 27.2483 68.7577 27.7384C68.9467 27.8585 69.1416 27.955 69.3443 28.0317L65.878 37.8973C65.5178 38.9228 66.0571 40.0468 67.0826 40.405C67.2992 40.4818 67.5196 40.5172 67.7361 40.5172C68.5491 40.5172 69.3089 40.0113 69.5923 39.2004L72.6335 30.5434C73.3086 31.0355 74.1176 31.252 74.9148 31.1654C74.903 31.4055 74.9227 31.6417 74.9641 31.8779L69.6573 39.159C69.0176 40.0369 69.2105 41.2672 70.0884 41.9069C70.4387 42.1628 70.8442 42.2848 71.2458 42.2848C71.854 42.2848 72.4524 42.0033 72.8382 41.4758L77.8714 34.5707C77.958 34.5746 78.0465 34.5963 78.1391 34.5983Z" fill="#973543"/>
<path d="M48.5424 32.368L50.5108 30.3996C51.2804 29.63 51.2804 28.3859 50.5108 27.6163C49.7411 26.8467 48.4971 26.8467 47.7275 27.6163L45.7591 29.5847C44.9894 30.3543 44.9894 31.5983 45.7591 32.368C46.1429 32.7518 46.6468 32.9447 47.1507 32.9447C47.6546 32.9447 48.1585 32.7518 48.5424 32.368Z" fill="#973543"/>
<path d="M40.6688 33.5216C39.8992 32.7519 38.6552 32.7519 37.8855 33.5216C37.1159 34.2912 37.1159 35.5352 37.8855 36.3049L39.8539 38.2733C40.2377 38.6571 40.7417 38.85 41.2456 38.85C41.7495 38.85 42.2534 38.6571 42.6372 38.2733C43.4068 37.5036 43.4068 36.2596 42.6372 35.49L40.6688 33.5216Z" fill="#973543"/>
<path d="M49.6959 37.4583L47.7275 39.4267C46.9579 40.1964 46.9579 41.4404 47.7275 42.21C48.1113 42.5939 48.6152 42.7868 49.1191 42.7868C49.6231 42.7868 50.127 42.5939 50.5108 42.21L52.4792 40.2416C53.2488 39.472 53.2488 38.228 52.4792 37.4583C51.7095 36.6887 50.4655 36.6887 49.6959 37.4583Z" fill="#973543"/>
<path d="M58.9611 34.9132C59.465 34.9132 59.9689 34.7203 60.3527 34.3365C61.1224 33.5668 61.1224 32.3228 60.3527 31.5532L58.3843 29.5848C57.6147 28.8152 56.3707 28.8152 55.601 29.5848C54.8314 30.3544 54.8314 31.5985 55.601 32.3681L57.5694 34.3365C57.9533 34.7203 58.4572 34.9132 58.9611 34.9132Z" fill="#973543"/>
<path d="M59.5378 37.4583L57.5694 39.4267C56.7998 40.1964 56.7998 41.4404 57.5694 42.21C57.9533 42.5939 58.4572 42.7868 58.9611 42.7868C59.465 42.7868 59.9689 42.5939 60.3527 42.21L62.3211 40.2416C63.0907 39.472 63.0907 38.228 62.3211 37.4583C61.5534 36.6887 60.3074 36.6887 59.5378 37.4583Z" fill="#973543"/>
<path d="M24.1068 37.4583L22.1384 39.4267C21.3688 40.1964 21.3688 41.4404 22.1384 42.21C22.5223 42.5939 23.0262 42.7868 23.5301 42.7868C24.034 42.7868 24.5379 42.5939 24.9217 42.21L26.8901 40.2416C27.6598 39.472 27.6598 38.228 26.8901 37.4583C26.1205 36.6887 24.8765 36.6887 24.1068 37.4583Z" fill="#973543"/>
<path d="M35.3404 38.8501H33.372C32.2855 38.8501 31.4036 39.73 31.4036 40.8185C31.4036 41.907 32.2855 42.7869 33.372 42.7869H35.3404C36.427 42.7869 37.3088 41.907 37.3088 40.8185C37.3088 39.73 36.427 38.8501 35.3404 38.8501Z" fill="#973543"/>
<path d="M42.2731 76.4521C34.6141 73.4976 28.8664 70.2931 24.1817 66.3701C23.3471 65.6713 22.107 65.7815 21.4082 66.6141C20.7114 67.4487 20.8197 68.6908 21.6543 69.3876C26.6815 73.598 32.7815 77.0092 40.8559 80.1232C41.0881 80.2137 41.3283 80.2551 41.5645 80.2551C42.3538 80.2551 43.0998 79.7768 43.401 78.9953C43.7927 77.9836 43.2868 76.8439 42.2731 76.4521Z" fill="#973543"/>
<path d="M16.2766 56.1678C15.8435 55.1698 14.6842 54.7112 13.6882 55.1422C12.6902 55.5753 12.2316 56.7347 12.6626 57.7307C13.5701 59.827 14.755 61.8387 16.1841 63.7067C16.5719 64.2146 17.1565 64.4803 17.7489 64.4803C18.1662 64.4803 18.5875 64.3484 18.9438 64.0748C19.8059 63.4154 19.9713 62.1792 19.3118 61.3171C18.0777 59.705 17.0561 57.9728 16.2766 56.1678Z" fill="#973543"/>
</g>
<defs>
<clipPath id="clip0_19_68">
<rect width="100" height="100" fill="white"/>
</clipPath>
</defs>
</svg>
