<svg width="594" height="303" viewBox="0 0 594 303" fill="none" xmlns="http://www.w3.org/2000/svg">
<path d="M427.995 33.5653C435.077 24.6723 438.853 15.8988 436.43 13.9692C434.007 12.0397 426.302 17.6847 419.22 26.5778C412.139 35.4708 408.362 44.2443 410.786 46.1738C413.209 48.1034 420.914 42.4584 427.995 33.5653Z" fill="#817673" stroke="#817673" stroke-width="2"/>
<path d="M435.153 13.7439L371.741 13.0839C372.41 27.9587 376.611 48.4116 379.447 66.3916C383.239 90.4516 377.587 98.8466 378.517 112.067C378.517 112.067 382.709 135.931 383.258 144.382C385.405 177.646 389.346 199.084 386.864 220.448C386.753 222.512 386.781 225.813 384.503 228.155C380.72 232.042 371.75 236.002 350.966 236.272C309.397 236.829 203.281 252.578 211.303 187.696C219.325 122.814 254.592 96.978 254.592 96.978L164.52 95.1186C164.52 95.1186 173.062 137.326 109.268 149.291C45.4743 161.256 3.44078 213.513 2 248.171H461.19C461.19 248.171 444.458 146.762 409.517 107.688C374.576 68.6135 435.153 13.7439 435.153 13.7439Z" fill="#3C302D" stroke="#F9F7F0" stroke-width="2"/>
<path d="M109.108 302C145.207 302 174.471 272.736 174.471 236.637C174.471 200.538 145.207 171.274 109.108 171.274C73.0086 171.274 43.7445 200.538 43.7445 236.637C43.7445 272.736 73.0086 302 109.108 302Z" fill="#3C302D" stroke="#F9F7F0" stroke-width="2"/>
<path d="M109.657 273.438C129.072 273.438 144.81 257.699 144.81 238.285C144.81 218.87 129.072 203.131 109.657 203.131C90.2423 203.131 74.5036 218.87 74.5036 238.285C74.5036 257.699 90.2423 273.438 109.657 273.438Z" fill="#3C302D" stroke="#F9F7F0" stroke-width="2"/>
<path d="M475.363 301.726C511.462 301.726 540.726 272.462 540.726 236.363C540.726 200.264 511.462 171 475.363 171C439.264 171 410 200.264 410 236.363C410 272.462 439.264 301.726 475.363 301.726Z" fill="#3C302D" stroke="#F9F7F0" stroke-width="2"/>
<path d="M475.471 273.438C494.885 273.438 510.624 257.699 510.624 238.285C510.624 218.87 494.885 203.131 475.471 203.131C456.056 203.131 440.318 218.87 440.318 238.285C440.318 257.699 456.056 273.438 475.471 273.438Z" fill="#3C302D" stroke="#F9F7F0" stroke-width="2"/>
<path d="M124.07 108.933H269.552C269.552 108.933 273.157 84.7218 263.033 83.9913C252.91 83.2608 154.999 83.9913 154.999 83.9913C154.999 83.9913 134.156 85.4523 124.07 108.933Z" fill="#973543" stroke="#F9F7F0" stroke-width="2"/>
<path d="M371.659 24.0693C378.029 24.0693 383.193 18.9051 383.193 12.5347C383.193 6.16425 378.029 1 371.659 1C365.288 1 360.124 6.16425 360.124 12.5347C360.124 18.9051 365.288 24.0693 371.659 24.0693Z" fill="#973543" stroke="#F9F7F0" stroke-width="2"/>
<path d="M173.224 248.116L200.335 248.172C200.335 248.172 226.257 195.44 196.203 159.919C187.921 150.135 175.777 145.01 162.965 144.227C124.444 141.917 97.4814 149.408 70.9279 161.652C48.9056 172.069 30.0671 188.219 16.3724 208.42C2.70562 229.041 2 248.172 2 248.172L173.224 248.116Z" fill="#973543" stroke="#F9F7F0" stroke-width="2"/>
<path d="M411.206 248.172L522.708 192.864C522.708 192.864 495.91 157.468 447.215 177.318C442.685 179.437 438.375 181.998 434.346 184.965C423.848 193.107 404.139 216.8 411.206 248.172Z" fill="#973543" stroke="#F9F7F0" stroke-width="2"/>
<path d="M521.06 180.062L593.015 30.1114L435.374 13.6333L409.558 44.9416L521.06 180.062Z" fill="url(#paint0_linear_18_933)"/>
<defs>
<linearGradient id="paint0_linear_18_933" x1="3251.34" y1="-11360.1" x2="14058.3" y2="-3792.15" gradientUnits="userSpaceOnUse">
<stop stop-color="white" stop-opacity="0.2"/>
<stop offset="1" stop-color="white" stop-opacity="0"/>
</linearGradient>
</defs>
</svg>
